<?xml version="1.0" encoding="utf-8"?><svg version="1.1" preserveAspectRatio="xMidYMid" xml:space="preserve" width="876.85611pt" height="918.028464pt" viewBox="18.60959 -2.6408639999999996 876.85611 918.028464" xmlns="http://www.w3.org/2000/svg" xmlns:xlink="http://www.w3.org/1999/xlink"><g transform="matrix(1 0 0 -1 0 932)"><g stroke="#000000" fill="none" fill-rule="evenodd" stroke-width="1" stroke-linecap="round" stroke-linejoin="round" stroke-miterlimit="3" letter-spacing="normal" font-weight="normal" font-style="normal" baseline-shift="0"><g transform="matrix(0.75 0 0 0.75 0 932.400024)"><g transform="matrix(0.958904 0 0 -0.95986 0 0)" font-family="SegoeUIUnicode" font-size="10"><path fill="#FFFE99" d="M497 647C498 648 497 645 496 647C483 649 470 649 364 647C321 646 277 646 231 646C229 645 227 648 228 649C230 659 230 670 228 755C227 790 227 825 229 862C228 861 229 865 230 864C243 866 256 866 362 864C405 863 449 863 495 865C496 865 497 862 497 860C495 850 495 839 497 754C498 719 498 684 497 647 Z" /><text transform="matrix(1 0 0 1 311 652)" fill="#000000" stroke="none"><tspan dx="0 " x="0" y="10">«Gegevensgroeptype»</tspan></text><text transform="matrix(1 0 0 1 258 665)" fill="#000000" font-weight="bold" stroke="none"><tspan dx="0 " x="0" y="10">AttributeGroups::Registratiegeschiedenis</tspan></text><path d="M227 681C240 683 254 683 363 681C408 679 453 679 500 681" /><text transform="matrix(1 0 0 1 241 690)" fill="#000000" stroke="none"><tspan dx="0 " x="0" y="10">«Attribuutsoort»</tspan></text><text transform="matrix(1 0 0 1 233 703)" fill="#3C3C3C" stroke="none"><tspan dx="0 " x="0" y="10">+ </tspan></text><text transform="matrix(1 0 0 1 250 703)" fill="#3C3C3C" stroke="none"><tspan dx="0 " x="0" y="10">tijdstip registratie object: DateTime</tspan></text><text transform="matrix(1 0 0 1 233 716)" fill="#3C3C3C" stroke="none"><tspan dx="0 " x="0" y="10">+ </tspan></text><text transform="matrix(1 0 0 1 250 716)" fill="#3C3C3C" stroke="none"><tspan dx="0 " x="0" y="10">registratiestatus: Registratiestatus</tspan></text><text transform="matrix(1 0 0 1 233 729)" fill="#3C3C3C" stroke="none"><tspan dx="0 " x="0" y="10">+ </tspan></text><text transform="matrix(1 0 0 1 250 729)" fill="#3C3C3C" stroke="none"><tspan dx="0 " x="0" y="10">tijdstip laatste aanvulling: DateTime [0..1]</tspan></text><text transform="matrix(1 0 0 1 233 742)" fill="#3C3C3C" stroke="none"><tspan dx="0 " x="0" y="10">+ </tspan></text><text transform="matrix(1 0 0 1 250 742)" fill="#3C3C3C" stroke="none"><tspan dx="0 " x="0" y="10">tijdstip voltooiing registratie: DateTime [0..1]</tspan></text><text transform="matrix(1 0 0 1 233 755)" fill="#3C3C3C" stroke="none"><tspan dx="0 " x="0" y="10">+ </tspan></text><text transform="matrix(1 0 0 1 250 755)" fill="#3C3C3C" stroke="none"><tspan dx="0 " x="0" y="10">gecorrigeerd: Boolean</tspan></text><text transform="matrix(1 0 0 1 233 768)" fill="#3C3C3C" stroke="none"><tspan dx="0 " x="0" y="10">+ </tspan></text><text transform="matrix(1 0 0 1 250 768)" fill="#3C3C3C" stroke="none"><tspan dx="0 " x="0" y="10">tijdstip laatste correctie: DateTime [0..1]</tspan></text><text transform="matrix(1 0 0 1 233 781)" fill="#3C3C3C" stroke="none"><tspan dx="0 " x="0" y="10">+ </tspan></text><text transform="matrix(1 0 0 1 250 781)" fill="#3C3C3C" stroke="none"><tspan dx="0 " x="0" y="10">in onderzoek: Boolean</tspan></text><text transform="matrix(1 0 0 1 233 794)" fill="#3C3C3C" stroke="none"><tspan dx="0 " x="0" y="10">+ </tspan></text><text transform="matrix(1 0 0 1 250 794)" fill="#3C3C3C" stroke="none"><tspan dx="0 " x="0" y="10">in onderzoek sinds: DateTime [0..1]</tspan></text><text transform="matrix(1 0 0 1 233 807)" fill="#3C3C3C" stroke="none"><tspan dx="0 " x="0" y="10">+ </tspan></text><text transform="matrix(1 0 0 1 250 807)" fill="#3C3C3C" stroke="none"><tspan dx="0 " x="0" y="10">uit registratie genomen: Boolean</tspan></text><text transform="matrix(1 0 0 1 233 820)" fill="#3C3C3C" stroke="none"><tspan dx="0 " x="0" y="10">+ </tspan></text><text transform="matrix(1 0 0 1 250 820)" fill="#3C3C3C" stroke="none"><tspan dx="0 " x="0" y="10">tijdstip uit registratie genomen: DateTime [0..1]</tspan></text><text transform="matrix(1 0 0 1 233 833)" fill="#3C3C3C" stroke="none"><tspan dx="0 " x="0" y="10">+ </tspan></text><text transform="matrix(1 0 0 1 250 833)" fill="#3C3C3C" stroke="none"><tspan dx="0 " x="0" y="10">weer in registratie genomen: Boolean</tspan></text><text transform="matrix(1 0 0 1 233 846)" fill="#3C3C3C" stroke="none"><tspan dx="0 " x="0" y="10">+ </tspan></text><text transform="matrix(1 0 0 1 250 846)" fill="#3C3C3C" stroke="none"><tspan dx="0 " x="0" y="10">tijdstip weer in registratie genomen: DateTime [0..1]</tspan></text><path fill="#FFFFFF" d="M414 480C414 477 411 478 411 477C398 475 384 475 275 477C231 479 186 479 139 477C138 478 136 479 138 480C139 485 139 490 138 533C138 550 138 567 137 586C138 587 138 590 138 590C151 592 165 592 274 590C318 588 363 588 410 589C411 590 414 588 412 587C413 582 413 577 412 534C412 517 413 499 414 480 Z" /><text transform="matrix(1 0 0 1 239 483)" fill="#000000" stroke="none"><tspan dx="0 " x="0" y="10">«FeatureType»</tspan></text><text transform="matrix(1 0 0 1 157 496)" fill="#000000" font-weight="bold" stroke="none"><tspan dx="0 " x="0" y="10">Model::BodemEnGrondwatertrappenKaartvlak</tspan></text><path d="M137 512C150 514 164 514 275 512C320 510 366 510 414 512" /><text transform="matrix(1 0 0 1 142 517)" fill="#3C3C3C" stroke="none"><tspan dx="0 " x="0" y="10">+ </tspan></text><text transform="matrix(1 0 0 1 159 517)" fill="#3C3C3C" stroke="none"><tspan dx="0 " x="0" y="10">id: Identifier {id}</tspan></text><text transform="matrix(1 0 0 1 142 530)" fill="#3C3C3C" stroke="none"><tspan dx="0 " x="0" y="10">+ </tspan></text><text transform="matrix(1 0 0 1 159 530)" fill="#3C3C3C" stroke="none"><tspan dx="0 " x="0" y="10">geometry: GM_Polygon</tspan></text><text transform="matrix(1 0 0 1 150 547)" fill="#000000" stroke="none"><tspan dx="0 " x="0" y="10">«Voidable»</tspan></text><text transform="matrix(1 0 0 1 142 560)" fill="#3C3C3C" stroke="none"><tspan dx="0 " x="0" y="10">+ </tspan></text><text transform="matrix(1 0 0 1 159 560)" fill="#3C3C3C" stroke="none"><tspan dx="0 " x="0" y="10">helling: BodemHellingWaarde</tspan></text><path fill="#FFFFFF" d="M390 252C391 250 390 250 390 250C379 252 368 252 276 250C239 249 201 249 161 249C160 249 159 251 160 250C160 254 160 259 160 295C160 310 159 325 158 341C160 344 161 344 161 344C172 346 183 346 274 344C311 343 349 343 388 345C391 344 392 343 391 342C391 338 391 334 391 298C391 283 391 268 390 252 Z" /><text transform="matrix(1 0 0 1 239 255)" fill="#000000" stroke="none"><tspan dx="0 " x="0" y="10">«FeatureType»</tspan></text><text transform="matrix(1 0 0 1 169 268)" fill="#000000" font-weight="bold" stroke="none"><tspan dx="0 " x="0" y="10">Model::BodemEnGrondwatertrappenKaart</tspan></text><path d="M159 286C170 284 182 284 274 286C312 287 350 287 390 286" /><text transform="matrix(1 0 0 1 164 289)" fill="#3C3C3C" stroke="none"><tspan dx="0 " x="0" y="10">+ </tspan></text><text transform="matrix(1 0 0 1 181 289)" fill="#3C3C3C" stroke="none"><tspan dx="0 " x="0" y="10">id: Identifier {id}</tspan></text><text transform="matrix(1 0 0 1 164 302)" fill="#3C3C3C" stroke="none"><tspan dx="0 " x="0" y="10">+ </tspan></text><text transform="matrix(1 0 0 1 181 302)" fill="#3C3C3C" stroke="none"><tspan dx="0 " x="0" y="10">extent: EX_Extent</tspan></text><text transform="matrix(1 0 0 1 164 315)" fill="#3C3C3C" stroke="none"><tspan dx="0 " x="0" y="10">+ </tspan></text><text transform="matrix(1 0 0 1 181 315)" fill="#3C3C3C" stroke="none"><tspan dx="0 " x="0" y="10">schaal: int</tspan></text><path fill="#FFFFFF" d="M726 867C725 864 723 864 723 865C714 866 705 866 632 864C602 863 572 863 541 863C538 863 538 866 539 866C539 869 539 872 538 898C538 908 538 919 537 930C538 932 540 932 542 933C551 934 560 934 632 933C662 932 692 932 723 932C724 933 724 931 726 931C726 928 726 925 726 899C726 889 726 878 726 867 Z" /><text transform="matrix(1 0 0 1 596 870)" fill="#000000" stroke="none"><tspan dx="0 " x="0" y="10">«FeatureType»</tspan></text><text transform="matrix(1 0 0 1 558 883)" fill="#000000" font-weight="bold" stroke="none"><tspan dx="0 " x="0" y="10">Model::AfgeleidBodemprofiel</tspan></text><path fill="#FFFFFF" d="M978 422C979 420 976 419 977 420C961 423 945 423 813 420C759 418 705 418 648 421C646 420 643 420 644 422C644 426 644 431 644 467C644 482 644 498 644 514C644 516 646 517 647 516C663 519 679 519 811 516C865 514 919 514 975 516C976 516 978 514 977 514C977 510 977 505 977 468C977 453 977 438 978 422 Z" /><text transform="matrix(1 0 0 1 775 426)" fill="#000000" stroke="none"><tspan dx="0 " x="0" y="10">«FeatureType»</tspan></text><text transform="matrix(1 0 0 1 671 439)" fill="#000000" font-weight="bold" stroke="none"><tspan dx="0 " x="0" y="10">Model::BodemEnGrondwatertrappenKaartvlakCollectie</tspan></text><path d="M643 457C659 454 676 454 810 457C865 459 920 459 978 456" /><text transform="matrix(1 0 0 1 649 460)" fill="#3C3C3C" stroke="none"><tspan dx="0 " x="0" y="10">+ </tspan></text><text transform="matrix(1 0 0 1 666 460)" fill="#3C3C3C" stroke="none"><tspan dx="0 " x="0" y="10">id: Identifier {id}</tspan></text><text transform="matrix(1 0 0 1 649 473)" fill="#3C3C3C" stroke="none"><tspan dx="0 " x="0" y="10">+ </tspan></text><text transform="matrix(1 0 0 1 666 473)" fill="#3C3C3C" stroke="none"><tspan dx="0 " x="0" y="10">naam: string</tspan></text><text transform="matrix(1 0 0 1 649 486)" fill="#3C3C3C" stroke="none"><tspan dx="0 " x="0" y="10">+ </tspan></text><text transform="matrix(1 0 0 1 666 486)" fill="#3C3C3C" stroke="none"><tspan dx="0 " x="0" y="10">type: BodemEnGrondwatertrappenKaartvlakCollectieTypeWaarde</tspan></text><path fill="#FFFFFF" d="M465 696C465 695 464 692 464 693C448 696 431 696 295 693C240 691 184 691 126 692C125 694 124 693 122 696C123 701 123 706 122 748C122 765 123 783 124 802C123 803 123 804 125 804C141 807 158 807 294 804C349 802 405 802 463 804C464 804 466 803 465 801C464 796 464 791 465 749C465 732 465 715 465 696 Z" /><text transform="matrix(1 0 0 1 259 699)" fill="#000000" stroke="none"><tspan dx="0 " x="0" y="10">«FeatureType»</tspan></text><text transform="matrix(1 0 0 1 241 712)" fill="#000000" font-weight="bold" stroke="none"><tspan dx="0 " x="0" y="10">Model::BodemObject</tspan></text><path d="M122 730C139 733 156 733 293 730C349 728 406 728 465 730" /><text transform="matrix(1 0 0 1 128 733)" fill="#3C3C3C" stroke="none"><tspan dx="0 " x="0" y="10">+ </tspan></text><text transform="matrix(1 0 0 1 145 733)" fill="#3C3C3C" stroke="none"><tspan dx="0 " x="0" y="10">id: Identifier {id}</tspan></text><text transform="matrix(1 0 0 1 128 746)" fill="#3C3C3C" stroke="none"><tspan dx="0 " x="0" y="10">+ </tspan></text><text transform="matrix(1 0 0 1 145 746)" fill="#3C3C3C" stroke="none"><tspan dx="0 " x="0" y="10">bodemkenmerken: BodemEnGrondwatertrappenKaarteenheid [1..3]</tspan></text><text transform="matrix(1 0 0 1 136 763)" fill="#000000" stroke="none"><tspan dx="0 " x="0" y="10">«Voidable»</tspan></text><text transform="matrix(1 0 0 1 128 776)" fill="#3C3C3C" stroke="none"><tspan dx="0 " x="0" y="10">+ </tspan></text><text transform="matrix(1 0 0 1 145 776)" fill="#3C3C3C" stroke="none"><tspan dx="0 " x="0" y="10">geometry: GM_MultiSurface</tspan></text><path fill="#FFFFFF" d="M1144 859C1145 859 1142 856 1142 856C1128 858 1114 858 1001 856C955 854 908 854 859 857C857 856 856 860 856 860C856 863 856 867 856 899C856 911 856 924 857 938C857 940 856 942 860 941C874 939 888 939 1001 941C1047 943 1094 943 1143 942C1143 941 1143 939 1144 937C1144 934 1144 930 1144 898C1144 886 1144 873 1144 859 Z" /><text transform="matrix(1 0 0 1 964 863)" fill="#000000" stroke="none"><tspan dx="0 " x="0" y="10">«FeatureType»</tspan></text><text transform="matrix(1 0 0 1 911 876)" fill="#000000" font-weight="bold" stroke="none"><tspan dx="0 " x="0" y="10">Model::WaargenomenBodemprofiel</tspan></text><path d="M856 893C870 891 884 891 1000 893C1047 895 1095 895 1144 893" /><text transform="matrix(1 0 0 1 869 901)" fill="#000000" stroke="none"><tspan dx="0 " x="0" y="10">«AttributeType»</tspan></text><text transform="matrix(1 0 0 1 861 914)" fill="#3C3C3C" stroke="none"><tspan dx="0 " x="0" y="10">- </tspan></text><text transform="matrix(1 0 0 1 878 914)" fill="#3C3C3C" stroke="none"><tspan dx="0 " x="0" y="10">BRO_RO_Booronderzoek: Registratieobjectcode</tspan></text><path fill="#FFFFFF" d="M912 658C911 655 909 654 909 655C897 653 885 653 789 655C749 656 709 656 667 656C664 656 662 655 664 659C663 665 663 672 664 728C665 751 665 774 663 798C663 800 665 800 667 800C679 798 691 798 787 800C827 801 867 801 909 801C909 801 910 801 910 798C911 791 911 784 911 728C910 705 910 682 912 658 Z" /><text transform="matrix(1 0 0 1 751 661)" fill="#000000" stroke="none"><tspan dx="0 " x="0" y="10">«FeatureType»</tspan></text><text transform="matrix(1 0 0 1 735 674)" fill="#000000" font-weight="bold" stroke="none"><tspan dx="0 " x="0" y="10">Model::Bodemprofiel</tspan></text><path d="M662 692C674 690 686 690 786 692C827 693 869 692 912 690" /><text transform="matrix(1 0 0 1 676 699)" fill="#000000" stroke="none"><tspan dx="0 " x="0" y="10">«AttributeType»</tspan></text><text transform="matrix(1 0 0 1 668 712)" fill="#3C3C3C" stroke="none"><tspan dx="0 " x="0" y="10">- </tspan></text><text transform="matrix(1 0 0 1 685 712)" fill="#3C3C3C" stroke="none"><tspan dx="0 " x="0" y="10">bodemprofiel id: Identifier</tspan></text><text transform="matrix(1 0 0 1 668 725)" fill="#3C3C3C" stroke="none"><tspan dx="0 " x="0" y="10">- </tspan></text><text transform="matrix(1 0 0 1 685 725)" fill="#3C3C3C" stroke="none"><tspan dx="0 " x="0" y="10">WRBSoilName: WRBSoilNameType</tspan></text><text transform="matrix(1 0 0 1 668 738)" fill="#3C3C3C" stroke="none"><tspan dx="0 " x="0" y="10">- </tspan></text><text transform="matrix(1 0 0 1 685 738)" fill="#3C3C3C" stroke="none"><tspan dx="0 " x="0" y="10">otherSoilName: OtherSoilNameType</tspan></text><text transform="matrix(1 0 0 1 676 755)" fill="#000000" stroke="none"><tspan dx="0 " x="0" y="10">«AttributeType, Voidable»</tspan></text><text transform="matrix(1 0 0 1 668 768)" fill="#3C3C3C" stroke="none"><tspan dx="0 " x="0" y="10">- </tspan></text><text transform="matrix(1 0 0 1 685 768)" fill="#3C3C3C" stroke="none"><tspan dx="0 " x="0" y="10">validFrom: Date</tspan></text><text transform="matrix(1 0 0 1 668 781)" fill="#3C3C3C" stroke="none"><tspan dx="0 " x="0" y="10">- </tspan></text><text transform="matrix(1 0 0 1 685 781)" fill="#3C3C3C" stroke="none"><tspan dx="0 " x="0" y="10">validTo: DateTime</tspan></text><path stroke="#C0C0C0" fill="#FFFFFF" d="M381 91C380 90 380 89 378 90C369 89 359 89 281 90C249 91 217 91 184 90C181 90 180 90 181 91C181 93 181 96 181 120C181 129 181 139 180 150C181 149 181 152 182 152C191 153 201 153 280 152C312 151 344 151 378 151C381 150 381 151 381 149C381 147 381 144 381 120C381 111 381 101 381 91 Z" /><text transform="matrix(1 0 0 1 246 95)" fill="#000000" stroke="none"><tspan dx="0 " x="0" y="10">«featureType»</tspan></text><text transform="matrix(1 0 0 1 198 108)" fill="#000000" font-weight="bold" stroke="none"><tspan dx="0 " x="0" y="10">FeatureTypes::RegistratieObject</tspan></text><path stroke="#C0C0C0" fill="#FFFFFF" d="M1004 565C1003 566 1002 565 1002 564C984 567 965 567 813 564C751 562 689 562 624 564C624 563 623 565 623 565C623 567 623 569 623 586C623 592 623 599 623 607C622 609 623 610 624 611C642 608 661 608 812 611C874 613 936 613 1001 612C1004 612 1003 608 1005 609C1005 607 1005 605 1005 587C1005 580 1005 573 1004 565 Z" /><text transform="matrix(1 0 0 1 757 570)" fill="#000000" stroke="none"><tspan dx="0 " x="0" y="10">«enumeration,Codelist»</tspan></text><text transform="matrix(1 0 0 1 642 583)" fill="#000000" font-weight="bold" stroke="none"><tspan dx="0 " x="0" y="10">Model::BodemEnGrondwatertrappenKaartvlakCollectieTypeWaarde</tspan></text><path stroke="#C0C0C0" fill="#D7FCCE" d="M237 1105C238 1102 235 1103 233 1103C224 1102 214 1102 136 1102C104 1103 72 1103 39 1101C40 1103 39 1104 38 1104C38 1106 38 1109 38 1129C38 1137 38 1146 37 1155C38 1154 39 1157 40 1156C49 1155 59 1155 137 1156C169 1157 201 1157 234 1156C237 1155 238 1155 238 1153C238 1151 238 1149 238 1129C238 1122 238 1114 237 1105 Z" /><text transform="matrix(1 0 0 1 81 1108)" fill="#000000" stroke="none"><tspan dx="0 " x="0" y="10">«enumeration,Codelist»</tspan></text><text transform="matrix(1 0 0 1 64 1121)" fill="#000000" font-weight="bold" stroke="none"><tspan dx="0 " x="0" y="10">Model::BodemHellingWaarde</tspan></text><path stroke="#C0C0C0" fill="#D7FCCE" d="M497 1109C497 1107 496 1105 494 1105C484 1103 473 1103 387 1105C352 1106 316 1106 279 1105C276 1106 275 1108 277 1110C277 1112 277 1114 277 1133C277 1140 277 1148 276 1156C275 1156 277 1157 278 1156C288 1154 299 1154 385 1157C420 1158 456 1158 493 1158C495 1156 496 1156 496 1155C496 1153 496 1151 496 1132C496 1125 496 1117 497 1109 Z" /><text transform="matrix(1 0 0 1 330 1112)" fill="#000000" stroke="none"><tspan dx="0 " x="0" y="10">«enumeration,Codelist»</tspan></text><text transform="matrix(1 0 0 1 299 1125)" fill="#000000" font-weight="bold" stroke="none"><tspan dx="0 " x="0" y="10">Model::BodemHoofdklasseWaarde</tspan></text><path stroke="#C0C0C0" fill="#D7FCCE" d="M751 1195C752 1194 751 1193 749 1195C736 1197 723 1197 617 1194C574 1193 530 1193 484 1193C481 1193 480 1194 480 1197C480 1198 480 1200 480 1214C480 1219 480 1225 481 1232C480 1234 482 1235 484 1234C497 1236 510 1236 615 1235C658 1234 702 1234 747 1236C751 1234 750 1234 752 1231C752 1230 752 1228 752 1213C752 1208 752 1202 751 1195 Z" /><text transform="matrix(1 0 0 1 560 1200)" fill="#000000" stroke="none"><tspan dx="0 " x="0" y="10">«enumeration,Codelist»</tspan></text><text transform="matrix(1 0 0 1 504 1213)" fill="#000000" font-weight="bold" stroke="none"><tspan dx="0 " x="0" y="10">Model::BodemKenmerkenBovenlaagWaarde</tspan></text><path stroke="#C0C0C0" fill="#D7FCCE" d="M442 1192C441 1192 439 1191 438 1191C419 1194 399 1194 242 1191C177 1189 112 1189 45 1191C45 1189 42 1190 43 1193C43 1194 43 1196 43 1211C43 1217 43 1224 44 1231C44 1230 45 1233 46 1233C65 1230 85 1230 242 1233C307 1235 372 1234 440 1231C441 1231 440 1230 440 1229C440 1228 440 1226 441 1211C441 1205 441 1199 442 1192 Z" /><text transform="matrix(1 0 0 1 186 1196)" fill="#000000" stroke="none"><tspan dx="0 " x="0" y="10">«enumeration,Codelist»</tspan></text><text transform="matrix(1 0 0 1 131 1209)" fill="#000000" font-weight="bold" stroke="none"><tspan dx="0 " x="0" y="10">Model::BodemKenmerkenOnderlaagWaarde</tspan></text><path stroke="#C0C0C0" fill="#D7FCCE" d="M935 1113C934 1112 934 1111 931 1110C911 1113 891 1113 731 1111C665 1109 599 1109 531 1112C531 1110 531 1112 530 1114C530 1116 530 1119 529 1142C529 1143 532 1144 531 1146C551 1143 571 1143 732 1145C798 1147 864 1147 933 1144C932 1145 934 1145 934 1143C934 1142 934 1140 934 1128C934 1124 934 1119 935 1113 Z" /><text transform="matrix(1 0 0 1 676 1117)" fill="#000000" stroke="none"><tspan dx="0 " x="0" y="10">«enumeration,Codelist»</tspan></text><text transform="matrix(1 0 0 1 634 1130)" fill="#000000" font-weight="bold" stroke="none"><tspan dx="0 " x="0" y="10">Model::BodemLegendaEenheidWaarde</tspan></text><path stroke="#C0C0C0" fill="#D7FCCE" d="M933 1198C932 1198 932 1195 931 1197C924 1196 916 1196 856 1197C832 1198 807 1198 781 1196C780 1196 778 1197 778 1197C778 1200 778 1203 778 1227C778 1236 778 1246 778 1257C777 1259 780 1260 779 1260C786 1261 794 1261 854 1260C879 1259 904 1259 930 1260C932 1261 932 1259 933 1257C933 1255 933 1252 933 1228C933 1219 933 1209 933 1198 Z" /><text transform="matrix(1 0 0 1 799 1202)" fill="#000000" stroke="none"><tspan dx="0 " x="0" y="10">«enumeration,Codelist»</tspan></text><text transform="matrix(1 0 0 1 836 1215)" fill="#000000" font-weight="bold" stroke="none"><tspan dx="0 " x="0" y="10">Model::</tspan></text><text transform="matrix(1 0 0 1 796 1227)" fill="#000000" font-weight="bold" stroke="none"><tspan dx="0 " x="0" y="10">GrondwatertrapWaarde</tspan></text><path fill="#CCFFFF" d="M445 934C445 933 446 933 443 932C427 935 410 935 277 932C223 930 168 930 111 933C109 932 108 933 108 935C109 941 109 947 108 995C108 1015 108 1035 107 1056C108 1058 111 1059 111 1060C127 1057 144 1057 278 1060C333 1062 388 1062 445 1059C444 1059 447 1058 447 1057C448 1051 448 1045 447 996C447 976 446 956 445 934 Z" /><text transform="matrix(1 0 0 1 250 938)" fill="#000000" stroke="none"><tspan dx="0 " x="0" y="10">«Datatype»</tspan></text><text transform="matrix(1 0 0 1 151 951)" fill="#000000" font-weight="bold" stroke="none"><tspan dx="0 " x="0" y="10">Model::BodemEnGrondwatertrappenKaarteenheid</tspan></text><path d="M109 968C125 971 142 971 277 968C332 966 388 966 446 969" /><text transform="matrix(1 0 0 1 113 972)" fill="#3C3C3C" stroke="none"><tspan dx="0 " x="0" y="10">+ </tspan></text><text transform="matrix(1 0 0 1 130 972)" fill="#3C3C3C" stroke="none"><tspan dx="0 " x="0" y="10">bodemHoofdklasse: BodemHoofdklasseWaarde</tspan></text><text transform="matrix(1 0 0 1 113 985)" fill="#3C3C3C" stroke="none"><tspan dx="0 " x="0" y="10">+ </tspan></text><text transform="matrix(1 0 0 1 130 985)" fill="#3C3C3C" stroke="none"><tspan dx="0 " x="0" y="10">bodemlegendaEenheid: BodemLegendaEenheidWaarde</tspan></text><text transform="matrix(1 0 0 1 113 998)" fill="#3C3C3C" stroke="none"><tspan dx="0 " x="0" y="10">+ </tspan></text><text transform="matrix(1 0 0 1 130 998)" fill="#3C3C3C" stroke="none"><tspan dx="0 " x="0" y="10">bodemkenmerkenBovenlaag: BodemKenmerkenBovenlaagWaarde</tspan></text><text transform="matrix(1 0 0 1 113 1011)" fill="#3C3C3C" stroke="none"><tspan dx="0 " x="0" y="10">+ </tspan></text><text transform="matrix(1 0 0 1 130 1011)" fill="#3C3C3C" stroke="none"><tspan dx="0 " x="0" y="10">bodemkenmerkenOnderlaag: BodemKenmerkenOnderlaagWaarde</tspan></text><text transform="matrix(1 0 0 1 113 1024)" fill="#3C3C3C" stroke="none"><tspan dx="0 " x="0" y="10">+ </tspan></text><text transform="matrix(1 0 0 1 130 1024)" fill="#3C3C3C" stroke="none"><tspan dx="0 " x="0" y="10">grondwatertrap: GrondwatertrapWaarde</tspan></text><text transform="matrix(1 0 0 1 113 1037)" fill="#3C3C3C" stroke="none"><tspan dx="0 " x="0" y="10">+ </tspan></text><text transform="matrix(1 0 0 1 130 1037)" fill="#3C3C3C" stroke="none"><tspan dx="0 " x="0" y="10">bodemHelling: BodemHellingWaarde</tspan></text><path stroke="#C0C0C0" fill="#FFFFFF" d="M833 11C835 12 832 10 831 10C819 12 806 12 704 9C663 8 621 8 577 8C577 10 575 12 577 13C579 24 579 35 576 123C575 159 575 196 575 234C576 236 576 236 577 237C589 235 602 235 705 237C747 238 789 238 833 237C834 235 833 235 834 235C836 224 836 213 834 123C833 87 833 50 833 11 Z" /><text transform="matrix(1 0 0 1 679 15)" fill="#000000" stroke="none"><tspan dx="0 " x="0" y="10">«datatype»</tspan></text><text transform="matrix(1 0 0 1 596 28)" fill="#000000" font-weight="bold" stroke="none"><tspan dx="0 " x="0" y="10">Citation and responsible party information::</tspan></text><text transform="matrix(1 0 0 1 678 40)" fill="#000000" font-weight="bold" stroke="none"><tspan dx="0 " x="0" y="10">CI_Citation</tspan></text><path stroke="#C0C0C0" d="M575 56C588 58 601 58 705 56C747 55 790 55 835 57" /><text transform="matrix(1 0 0 1 581 61)" fill="#3C3C3C" stroke="none"><tspan dx="0 " x="0" y="10">+ </tspan></text><text transform="matrix(1 0 0 1 598 61)" fill="#3C3C3C" stroke="none"><tspan dx="0 " x="0" y="10">title: CharacterString</tspan></text><text transform="matrix(1 0 0 1 581 74)" fill="#3C3C3C" stroke="none"><tspan dx="0 " x="0" y="10">+ </tspan></text><text transform="matrix(1 0 0 1 598 74)" fill="#3C3C3C" stroke="none"><tspan dx="0 " x="0" y="10">alternateTitle: CharacterString [0..*]</tspan></text><text transform="matrix(1 0 0 1 581 87)" fill="#3C3C3C" stroke="none"><tspan dx="0 " x="0" y="10">+ </tspan></text><text transform="matrix(1 0 0 1 598 87)" fill="#3C3C3C" stroke="none"><tspan dx="0 " x="0" y="10">date: CI_Date [1..*]</tspan></text><text transform="matrix(1 0 0 1 581 100)" fill="#3C3C3C" stroke="none"><tspan dx="0 " x="0" y="10">+ </tspan></text><text transform="matrix(1 0 0 1 598 100)" fill="#3C3C3C" stroke="none"><tspan dx="0 " x="0" y="10">edition: CharacterString [0..1]</tspan></text><text transform="matrix(1 0 0 1 581 113)" fill="#3C3C3C" stroke="none"><tspan dx="0 " x="0" y="10">+ </tspan></text><text transform="matrix(1 0 0 1 598 113)" fill="#3C3C3C" stroke="none"><tspan dx="0 " x="0" y="10">editionDate: Date [0..1]</tspan></text><text transform="matrix(1 0 0 1 581 126)" fill="#3C3C3C" stroke="none"><tspan dx="0 " x="0" y="10">+ </tspan></text><text transform="matrix(1 0 0 1 598 126)" fill="#3C3C3C" stroke="none"><tspan dx="0 " x="0" y="10">identifier: MD_Identifier [0..*]</tspan></text><text transform="matrix(1 0 0 1 581 139)" fill="#3C3C3C" stroke="none"><tspan dx="0 " x="0" y="10">+ </tspan></text><text transform="matrix(1 0 0 1 598 139)" fill="#3C3C3C" stroke="none"><tspan dx="0 " x="0" y="10">citedResponsibleParty: CI_ResponsibleParty [0..*]</tspan></text><text transform="matrix(1 0 0 1 581 152)" fill="#3C3C3C" stroke="none"><tspan dx="0 " x="0" y="10">+ </tspan></text><text transform="matrix(1 0 0 1 598 152)" fill="#3C3C3C" stroke="none"><tspan dx="0 " x="0" y="10">presentationForm: CI_PresentationFormCode [0..*]</tspan></text><text transform="matrix(1 0 0 1 581 165)" fill="#3C3C3C" stroke="none"><tspan dx="0 " x="0" y="10">+ </tspan></text><text transform="matrix(1 0 0 1 598 165)" fill="#3C3C3C" stroke="none"><tspan dx="0 " x="0" y="10">series: CI_Series [0..1]</tspan></text><text transform="matrix(1 0 0 1 581 178)" fill="#3C3C3C" stroke="none"><tspan dx="0 " x="0" y="10">+ </tspan></text><text transform="matrix(1 0 0 1 598 178)" fill="#3C3C3C" stroke="none"><tspan dx="0 " x="0" y="10">otherCitationDetails: CharacterString [0..1]</tspan></text><text transform="matrix(1 0 0 1 581 191)" fill="#3C3C3C" stroke="none"><tspan dx="0 " x="0" y="10">+ </tspan></text><text transform="matrix(1 0 0 1 598 191)" fill="#3C3C3C" stroke="none"><tspan dx="0 " x="0" y="10">collectiveTitle: CharacterString [0..1]</tspan></text><text transform="matrix(1 0 0 1 581 204)" fill="#3C3C3C" stroke="none"><tspan dx="0 " x="0" y="10">+ </tspan></text><text transform="matrix(1 0 0 1 598 204)" fill="#3C3C3C" stroke="none"><tspan dx="0 " x="0" y="10">ISBN: CharacterString [0..1]</tspan></text><text transform="matrix(1 0 0 1 581 217)" fill="#3C3C3C" stroke="none"><tspan dx="0 " x="0" y="10">+ </tspan></text><text transform="matrix(1 0 0 1 598 217)" fill="#3C3C3C" stroke="none"><tspan dx="0 " x="0" y="10">ISSN: CharacterString [0..1]</tspan></text><path stroke="#C0C0C0" fill="#FFFFFF" d="M1075 17C1077 14 1076 14 1073 14C1063 16 1052 16 967 14C932 13 897 13 860 14C858 14 859 14 859 15C860 21 860 27 859 75C859 94 859 114 858 135C857 136 860 136 861 136C871 134 882 134 967 136C1002 137 1038 137 1075 137C1075 137 1077 134 1077 135C1076 130 1076 124 1077 77C1077 58 1076 38 1075 17 Z" /><text transform="matrix(1 0 0 1 941 20)" fill="#000000" stroke="none"><tspan dx="0 " x="0" y="10">«datatype»</tspan></text><text transform="matrix(1 0 0 1 858 33)" fill="#000000" font-weight="bold" stroke="none"><tspan dx="0 " x="0" y="10">Citation and responsible party information::</tspan></text><text transform="matrix(1 0 0 1 914 45)" fill="#000000" font-weight="bold" stroke="none"><tspan dx="0 " x="0" y="10">CI_ResponsibleParty</tspan></text><path stroke="#C0C0C0" d="M858 62C868 60 879 60 967 63C1003 64 1039 64 1077 64" /><text transform="matrix(1 0 0 1 863 66)" fill="#3C3C3C" stroke="none"><tspan dx="0 " x="0" y="10">+ </tspan></text><text transform="matrix(1 0 0 1 880 66)" fill="#3C3C3C" stroke="none"><tspan dx="0 " x="0" y="10">individualName: CharacterString [0..1]</tspan></text><text transform="matrix(1 0 0 1 863 79)" fill="#3C3C3C" stroke="none"><tspan dx="0 " x="0" y="10">+ </tspan></text><text transform="matrix(1 0 0 1 880 79)" fill="#3C3C3C" stroke="none"><tspan dx="0 " x="0" y="10">organisationName: CharacterString [0..1]</tspan></text><text transform="matrix(1 0 0 1 863 92)" fill="#3C3C3C" stroke="none"><tspan dx="0 " x="0" y="10">+ </tspan></text><text transform="matrix(1 0 0 1 880 92)" fill="#3C3C3C" stroke="none"><tspan dx="0 " x="0" y="10">positionName: CharacterString [0..1]</tspan></text><text transform="matrix(1 0 0 1 863 105)" fill="#3C3C3C" stroke="none"><tspan dx="0 " x="0" y="10">+ </tspan></text><text transform="matrix(1 0 0 1 880 105)" fill="#3C3C3C" stroke="none"><tspan dx="0 " x="0" y="10">contactInfo: CI_Contact [0..1]</tspan></text><text transform="matrix(1 0 0 1 863 118)" fill="#3C3C3C" stroke="none"><tspan dx="0 " x="0" y="10">+ </tspan></text><text transform="matrix(1 0 0 1 880 118)" fill="#3C3C3C" stroke="none"><tspan dx="0 " x="0" y="10">role: CI_RoleCode</tspan></text><path stroke="#C0C0C0" fill="#FFFFFF" d="M1233 12C1233 13 1231 10 1229 10C1223 11 1217 11 1165 10C1144 10 1123 10 1100 11C1100 9 1097 13 1098 14C1096 26 1096 38 1098 138C1099 179 1099 220 1097 263C1097 267 1099 266 1102 268C1108 269 1114 269 1165 268C1186 268 1207 268 1229 267C1231 267 1234 265 1232 264C1230 252 1230 239 1232 138C1233 97 1233 55 1233 12 Z" /><text transform="matrix(1 0 0 1 1139 16)" fill="#000000" stroke="none"><tspan dx="0 " x="0" y="10">«CodeList»</tspan></text><text transform="matrix(1 0 0 1 1102 29)" fill="#000000" font-weight="bold" stroke="none"><tspan dx="0 " x="0" y="10">Citation and responsible </tspan></text><text transform="matrix(1 0 0 1 1120 41)" fill="#000000" font-weight="bold" stroke="none"><tspan dx="0 " x="0" y="10">party information::</tspan></text><text transform="matrix(1 0 0 1 1099 53)" fill="#000000" font-weight="bold" stroke="none"><tspan dx="0 " x="0" y="10">CI_PresentationFormCode</tspan></text><path stroke="#C0C0C0" d="M1098 71C1104 72 1111 72 1165 71C1187 70 1209 70 1233 70" /><text transform="matrix(1 0 0 1 1103 74)" fill="#3C3C3C" stroke="none"><tspan dx="0 " x="0" y="10">+ </tspan></text><text transform="matrix(1 0 0 1 1120 74)" fill="#3C3C3C" stroke="none"><tspan dx="0 " x="0" y="10">documentDigital</tspan></text><text transform="matrix(1 0 0 1 1103 87)" fill="#3C3C3C" stroke="none"><tspan dx="0 " x="0" y="10">+ </tspan></text><text transform="matrix(1 0 0 1 1120 87)" fill="#3C3C3C" stroke="none"><tspan dx="0 " x="0" y="10">documentHardcopy</tspan></text><text transform="matrix(1 0 0 1 1103 100)" fill="#3C3C3C" stroke="none"><tspan dx="0 " x="0" y="10">+ </tspan></text><text transform="matrix(1 0 0 1 1120 100)" fill="#3C3C3C" stroke="none"><tspan dx="0 " x="0" y="10">imageDigital</tspan></text><text transform="matrix(1 0 0 1 1103 113)" fill="#3C3C3C" stroke="none"><tspan dx="0 " x="0" y="10">+ </tspan></text><text transform="matrix(1 0 0 1 1120 113)" fill="#3C3C3C" stroke="none"><tspan dx="0 " x="0" y="10">imageHardcopy</tspan></text><text transform="matrix(1 0 0 1 1103 126)" fill="#3C3C3C" stroke="none"><tspan dx="0 " x="0" y="10">+ </tspan></text><text transform="matrix(1 0 0 1 1120 126)" fill="#3C3C3C" stroke="none"><tspan dx="0 " x="0" y="10">mapDigital</tspan></text><text transform="matrix(1 0 0 1 1103 139)" fill="#3C3C3C" stroke="none"><tspan dx="0 " x="0" y="10">+ </tspan></text><text transform="matrix(1 0 0 1 1120 139)" fill="#3C3C3C" stroke="none"><tspan dx="0 " x="0" y="10">mapHardcopy</tspan></text><text transform="matrix(1 0 0 1 1103 152)" fill="#3C3C3C" stroke="none"><tspan dx="0 " x="0" y="10">+ </tspan></text><text transform="matrix(1 0 0 1 1120 152)" fill="#3C3C3C" stroke="none"><tspan dx="0 " x="0" y="10">modelDigital</tspan></text><text transform="matrix(1 0 0 1 1103 165)" fill="#3C3C3C" stroke="none"><tspan dx="0 " x="0" y="10">+ </tspan></text><text transform="matrix(1 0 0 1 1120 165)" fill="#3C3C3C" stroke="none"><tspan dx="0 " x="0" y="10">modelHardcopy</tspan></text><text transform="matrix(1 0 0 1 1103 178)" fill="#3C3C3C" stroke="none"><tspan dx="0 " x="0" y="10">+ </tspan></text><text transform="matrix(1 0 0 1 1120 178)" fill="#3C3C3C" stroke="none"><tspan dx="0 " x="0" y="10">profileDigital</tspan></text><text transform="matrix(1 0 0 1 1103 191)" fill="#3C3C3C" stroke="none"><tspan dx="0 " x="0" y="10">+ </tspan></text><text transform="matrix(1 0 0 1 1120 191)" fill="#3C3C3C" stroke="none"><tspan dx="0 " x="0" y="10">profileHardcopy</tspan></text><text transform="matrix(1 0 0 1 1103 204)" fill="#3C3C3C" stroke="none"><tspan dx="0 " x="0" y="10">+ </tspan></text><text transform="matrix(1 0 0 1 1120 204)" fill="#3C3C3C" stroke="none"><tspan dx="0 " x="0" y="10">tableDigital</tspan></text><text transform="matrix(1 0 0 1 1103 217)" fill="#3C3C3C" stroke="none"><tspan dx="0 " x="0" y="10">+ </tspan></text><text transform="matrix(1 0 0 1 1120 217)" fill="#3C3C3C" stroke="none"><tspan dx="0 " x="0" y="10">tableHardcopy</tspan></text><text transform="matrix(1 0 0 1 1103 230)" fill="#3C3C3C" stroke="none"><tspan dx="0 " x="0" y="10">+ </tspan></text><text transform="matrix(1 0 0 1 1120 230)" fill="#3C3C3C" stroke="none"><tspan dx="0 " x="0" y="10">videoDigital</tspan></text><text transform="matrix(1 0 0 1 1103 243)" fill="#3C3C3C" stroke="none"><tspan dx="0 " x="0" y="10">+ </tspan></text><text transform="matrix(1 0 0 1 1120 243)" fill="#3C3C3C" stroke="none"><tspan dx="0 " x="0" y="10">videoHardcopy</tspan></text><path stroke-width="2" d="M413 492C424 490 436 490 528 492C565 493 603 493 643 493" /><path fill="#FCF2E3" stroke-width="2" d="M635 498C635 498 636 498 643 494C642 494 641 493 633 487C632 487 631 488 623 494C624 494 625 494 635 498 Z" /><path stroke-width="2" d="M415 494C416 494 417 495 428 500M414 493C415 493 416 492 428 487M282 589C281 594 281 599 281 641C281 658 281 675 280 694M282 694C282 693 281 691 276 677M281 694C281 693 282 691 287 678M282 346C281 352 281 358 282 410C282 431 281 453 280 476" /><path fill="#000000" stroke-width="2" d="M284 355C284 354 284 353 282 344C282 345 281 346 276 355C276 356 277 357 282 366C282 365 282 364 284 355 Z" /><path stroke-width="2" d="M280 476C280 475 279 473 274 461M280 478C280 477 281 475 286 463M281 250C281 246 281 241 281 201C281 185 281 169 282 151" /><path fill="#FCF2E3" stroke-width="2" d="M286 167C286 167 285 167 276 168C276 167 276 165 280 153C280 154 281 155 286 167 Z" /><path stroke-width="2" d="M696 865C696 862 696 859 696 834C696 824 696 813 695 802" /><path fill="#FCF2E3" stroke-width="2" d="M699 819C698 819 697 819 689 817C689 816 690 814 694 801C694 802 695 804 699 819 Z" /><path stroke-width="2" d="M468 777C473 776 479 776 527 777C546 777 565 777 586 777M587 776C587 780 587 784 587 819C587 833 587 848 586 863M586 865C586 864 585 862 581 849M585 864C585 863 586 862 591 850M856 900C850 899 844 899 792 899C771 899 750 899 727 898M857 898C856 898 854 897 840 892M856 899C855 899 853 900 840 906M883 856C883 854 883 851 884 829C884 821 884 812 885 802" /><path fill="#FCF2E3" stroke-width="2" d="M890 817C889 817 888 817 877 818C877 817 878 815 885 801C885 802 886 804 890 817 Z" /><path stroke-width="2" d="M285 932C286 926 286 920 285 868C285 847 285 826 286 803M284 933C284 932 285 930 291 916M285 932C285 931 284 930 280 918" /><g transform="matrix(1 0 0 -1 817 881)"><rect fill="#FFFFFF" stroke="none" x="0" width="35" y="-13" height="13" /></g><text transform="matrix(1 0 0 1 817 881)" fill="#000000" stroke="none"><tspan dx="0 " x="0" y="10">+profiel</tspan></text><g transform="matrix(1 0 0 -1 840 911)"><rect fill="#FFFFFF" stroke="none" x="0" width="14" y="-13" height="13" /></g><text transform="matrix(1 0 0 1 840 911)" fill="#000000" stroke="none"><tspan dx="0 " x="0" y="10">1..*</tspan></text><g transform="matrix(1 0 0 -1 741 903)"><rect fill="#FFFFFF" stroke="none" x="0" width="56" y="-13" height="13" /></g><text transform="matrix(1 0 0 1 741 903)" fill="#000000" stroke="none"><tspan dx="0 " x="0" y="10">afgeleid_van</tspan></text><g transform="matrix(1 0 0 -1 417 475)"><rect fill="#FFFFFF" stroke="none" x="0" width="25" y="-13" height="13" /></g><text transform="matrix(1 0 0 1 417 475)" fill="#000000" stroke="none"><tspan dx="0 " x="0" y="10">+vlak</tspan></text><g transform="matrix(1 0 0 -1 417 498)"><rect fill="#FFFFFF" stroke="none" x="0" width="14" y="-13" height="13" /></g><text transform="matrix(1 0 0 1 417 498)" fill="#000000" stroke="none"><tspan dx="0 " x="0" y="10">1..*</tspan></text><g transform="matrix(1 0 0 -1 488 479)"><rect fill="#FFFFFF" stroke="none" x="0" width="79" y="-13" height="13" /></g><text transform="matrix(1 0 0 1 488 479)" fill="#000000" stroke="none"><tspan dx="0 " x="0" y="10">beschrijft_vlakken</tspan></text><g transform="matrix(1 0 0 -1 247 389)"><rect fill="#FFFFFF" stroke="none" x="0" width="62" y="-13" height="13" /></g><text transform="matrix(1 0 0 1 247 389)" fill="#000000" stroke="none"><tspan dx="0 " x="0" y="10">heeft_vlakken</tspan></text><g transform="matrix(1 0 0 -1 230 456)"><rect fill="#FFFFFF" stroke="none" x="0" width="25" y="-13" height="13" /></g><text transform="matrix(1 0 0 1 230 456)" fill="#000000" stroke="none"><tspan dx="0 " x="0" y="10">+vlak</tspan></text><g transform="matrix(1 0 0 -1 288 459)"><rect fill="#FFFFFF" stroke="none" x="0" width="14" y="-13" height="13" /></g><text transform="matrix(1 0 0 1 288 459)" fill="#000000" stroke="none"><tspan dx="0 " x="0" y="10">1..*</tspan></text><g transform="matrix(1 0 0 -1 240 617)"><rect fill="#FFFFFF" stroke="none" x="0" width="89" y="-13" height="13" /></g><text transform="matrix(1 0 0 1 240 617)" fill="#000000" stroke="none"><tspan dx="0 " x="0" y="10">heeft_bodemobject</tspan></text><g transform="matrix(1 0 0 -1 158 667)"><rect fill="#FFFFFF" stroke="none" x="0" width="110" y="-13" height="13" /></g><text transform="matrix(1 0 0 1 158 667)" fill="#000000" stroke="none"><tspan dx="0 " x="0" y="10">+inkaartGebrachtObject</tspan></text><g transform="matrix(1 0 0 -1 301 673)"><rect fill="#FFFE99" stroke="none" x="0" width="15" y="-13" height="13" /></g><text transform="matrix(1 0 0 1 301 673)" fill="#000000" stroke="none"><tspan dx="0 " x="0" y="10">1..1</tspan></text><g transform="matrix(1 0 0 -1 551 796)"><rect fill="#FFFFFF" stroke="none" x="0" width="74" y="-13" height="13" /></g><text transform="matrix(1 0 0 1 551 796)" fill="#000000" stroke="none"><tspan dx="0 " x="0" y="10">is_gebaseerd_op</tspan></text><g transform="matrix(1 0 0 -1 542 846)"><rect fill="#FFFFFF" stroke="none" x="0" width="35" y="-13" height="13" /></g><text transform="matrix(1 0 0 1 542 846)" fill="#000000" stroke="none"><tspan dx="0 " x="0" y="10">+profiel</tspan></text><g transform="matrix(1 0 0 -1 594 846)"><rect fill="#FFFFFF" stroke="none" x="0" width="14" y="-13" height="13" /></g><text transform="matrix(1 0 0 1 594 846)" fill="#000000" stroke="none"><tspan dx="0 " x="0" y="10">1..*</tspan></text><g transform="matrix(1 0 0 -1 237 915)"><rect fill="#FFFFFF" stroke="none" x="0" width="44" y="-13" height="13" /></g><text transform="matrix(1 0 0 1 237 915)" fill="#000000" stroke="none"><tspan dx="0 " x="0" y="10">+eenheid</tspan></text><g transform="matrix(1 0 0 -1 175 854)"><rect fill="#FFFFFF" stroke="none" x="0" width="209" y="-13" height="13" /></g><text transform="matrix(1 0 0 1 175 854)" fill="#000000" stroke="none"><tspan dx="0 " x="0" y="10">heeft_bodem_en_grondwatertrappen_eenheid</tspan></text><text transform="matrix(1 0 0 1 40 20)" fill="#0000C8" stroke="none"><tspan dx="0 " x="0" y="10">Name:</tspan></text><text transform="matrix(1 0 0 1 40 33)" fill="#0000C8" stroke="none"><tspan dx="0 " x="0" y="10">Package:</tspan></text><text transform="matrix(1 0 0 1 40 46)" fill="#0000C8" stroke="none"><tspan dx="0 " x="0" y="10">Version:</tspan></text><text transform="matrix(1 0 0 1 40 59)" fill="#0000C8" stroke="none"><tspan dx="0 " x="0" y="10">Author:</tspan></text><text transform="matrix(1 0 0 1 94 20)" fill="#000096" stroke="none"><tspan dx="0 " x="0" y="10">Bodem- en Grondwatertrappenkaart 1:50.000</tspan></text><text transform="matrix(1 0 0 1 94 33)" fill="#000096" stroke="none"><tspan dx="0 " x="0" y="10">Diagrams</tspan></text><text transform="matrix(1 0 0 1 94 46)" fill="#000096" stroke="none"><tspan dx="0 " x="0" y="10">1.0</tspan></text><text transform="matrix(1 0 0 1 94 59)" fill="#000096" stroke="none"><tspan dx="0 " x="0" y="10">Rob Knapen</tspan></text></g></g></g></g></svg>