<?xml version="1.0" encoding="utf-8"?><svg version="1.1" preserveAspectRatio="xMidYMid" xml:space="preserve" width="877.57534pt" height="918.748369pt" viewBox="19.32876 -1.9209690000000003 877.57534 918.748369" xmlns="http://www.w3.org/2000/svg" xmlns:xlink="http://www.w3.org/1999/xlink"><g transform="matrix(1 0 0 -1 0 932)"><g stroke="#000000" fill="none" fill-rule="evenodd" stroke-width="1" stroke-linecap="round" stroke-linejoin="round" stroke-miterlimit="3" letter-spacing="normal" font-weight="normal" font-style="normal" baseline-shift="0"><g transform="matrix(0.75 0 0 0.75 0 932.400024)"><g transform="matrix(0.958904 0 0 -0.95986 0 0)" font-family="ArialUnicode" font-size="10"><path stroke="#FF0000" stroke-width="2" d="M517 631V975m0 0h648m0 0V631m0 0H517" /><text transform="matrix(1 0 0 1 604 635)" fill="#000000" stroke="none"><tspan dx="0 " x="0" y="9">link met de bodemprofielen (ander registratieobject, wordt ingevuld als de modellen gekoppeld zijn).</tspan></text><path fill="#DFDFDF" stroke="none" d="M140 485C140 480 140 480 145 480H411C416 480 416 480 416 485V587C416 592 416 592 411 592H145C140 592 140 592 140 587V485" /><path fill="#FFFFFF" stroke="none" d="M137 482C137 477 137 477 142 477H408C413 477 413 477 413 482V584C413 589 413 589 408 589H142C137 589 137 589 137 584V482" /><path d="M137 482C137 477 137 477 142 477H408C413 477 413 477 413 482V584C413 589 413 589 408 589H142C137 589 137 589 137 584V482m0 0C137 477 137 477 142 477H408C413 477 413 477 413 482V584C413 589 413 589 408 589H142C137 589 137 589 137 584V482" /><rect x="137" y="477" width="276" height="112" /><text transform="matrix(1 0 0 1 239 483)" fill="#000000" stroke="none"><tspan dx="0 " x="0" y="9">«FeatureType»</tspan></text><text transform="matrix(1 0 0 1 157 496)" fill="#000000" font-weight="bold" stroke="none"><tspan dx="0 " x="0" y="9">Model::BodemEnGrondwatertrappenKaartvlak</tspan></text><path d="M137 513H413" /><text transform="matrix(1 0 0 1 142 517)" fill="#3C3C3C" stroke="none"><tspan dx="0 " x="0" y="9">+ </tspan></text><text transform="matrix(1 0 0 1 159 517)" fill="#3C3C3C" stroke="none"><tspan dx="0 " x="0" y="9">id: Identifier {id}</tspan></text><text transform="matrix(1 0 0 1 142 530)" fill="#3C3C3C" stroke="none"><tspan dx="0 " x="0" y="9">+ </tspan></text><text transform="matrix(1 0 0 1 159 530)" fill="#3C3C3C" stroke="none"><tspan dx="0 " x="0" y="9">geometry: GM_Polygon</tspan></text><text transform="matrix(1 0 0 1 150 547)" fill="#000000" stroke="none"><tspan dx="0 " x="0" y="9">«Voidable»</tspan></text><text transform="matrix(1 0 0 1 142 560)" fill="#3C3C3C" stroke="none"><tspan dx="0 " x="0" y="9">+ </tspan></text><text transform="matrix(1 0 0 1 159 560)" fill="#3C3C3C" stroke="none"><tspan dx="0 " x="0" y="9">helling: BodemHellingWaarde</tspan></text><path fill="#DFDFDF" stroke="none" d="M162 257C162 252 162 252 167 252H389C394 252 394 252 394 257v85C394 347 394 347 389 347H167C162 347 162 347 162 342V257" /><path fill="#FFFFFF" stroke="none" d="M159 254C159 249 159 249 164 249H386C391 249 391 249 391 254v85C391 344 391 344 386 344H164C159 344 159 344 159 339V254" /><path d="M159 254C159 249 159 249 164 249H386C391 249 391 249 391 254v85C391 344 391 344 386 344H164C159 344 159 344 159 339V254m0 0C159 249 159 249 164 249H386C391 249 391 249 391 254v85C391 344 391 344 386 344H164C159 344 159 344 159 339V254" /><rect x="159" y="249" width="232" height="95" /><text transform="matrix(1 0 0 1 239 255)" fill="#000000" stroke="none"><tspan dx="0 " x="0" y="9">«FeatureType»</tspan></text><text transform="matrix(1 0 0 1 169 268)" fill="#000000" font-weight="bold" stroke="none"><tspan dx="0 " x="0" y="9">Model::BodemEnGrondwatertrappenKaart</tspan></text><path d="M159 285H391" /><text transform="matrix(1 0 0 1 164 289)" fill="#3C3C3C" stroke="none"><tspan dx="0 " x="0" y="9">+ </tspan></text><text transform="matrix(1 0 0 1 181 289)" fill="#3C3C3C" stroke="none"><tspan dx="0 " x="0" y="9">id: Identifier {id}</tspan></text><text transform="matrix(1 0 0 1 164 302)" fill="#3C3C3C" stroke="none"><tspan dx="0 " x="0" y="9">+ </tspan></text><text transform="matrix(1 0 0 1 181 302)" fill="#3C3C3C" stroke="none"><tspan dx="0 " x="0" y="9">extent: EX_Extent</tspan></text><text transform="matrix(1 0 0 1 164 315)" fill="#3C3C3C" stroke="none"><tspan dx="0 " x="0" y="9">+ </tspan></text><text transform="matrix(1 0 0 1 181 315)" fill="#3C3C3C" stroke="none"><tspan dx="0 " x="0" y="9">schaal: int</tspan></text><path fill="#DFDFDF" stroke="none" d="M541 872C541 867 541 867 546 867H723C728 867 728 867 728 872v59C728 936 728 936 723 936H546C541 936 541 936 541 931V872" /><path fill="#FFFFFF" stroke="none" d="M538 869C538 864 538 864 543 864H720C725 864 725 864 725 869v59C725 933 725 933 720 933H543C538 933 538 933 538 928V869" /><path d="M538 869C538 864 538 864 543 864H720C725 864 725 864 725 869v59C725 933 725 933 720 933H543C538 933 538 933 538 928V869m0 0C538 864 538 864 543 864H720C725 864 725 864 725 869v59C725 933 725 933 720 933H543C538 933 538 933 538 928V869" /><rect x="538" y="864" width="187" height="69" /><text transform="matrix(1 0 0 1 596 870)" fill="#000000" stroke="none"><tspan dx="0 " x="0" y="9">«FeatureType»</tspan></text><text transform="matrix(1 0 0 1 558 883)" fill="#000000" font-weight="bold" stroke="none"><tspan dx="0 " x="0" y="9">Model::AfgeleidBodemprofiel</tspan></text><path fill="#DFDFDF" stroke="none" d="M647 428C647 423 647 423 652 423H976C981 423 981 423 981 428v86C981 519 981 519 976 519H652C647 519 647 519 647 514V428" /><path fill="#FFFFFF" stroke="none" d="M644 425C644 420 644 420 649 420H973C978 420 978 420 978 425v86C978 516 978 516 973 516H649C644 516 644 516 644 511V425" /><path d="M644 425C644 420 644 420 649 420H973C978 420 978 420 978 425v86C978 516 978 516 973 516H649C644 516 644 516 644 511V425m0 0C644 420 644 420 649 420H973C978 420 978 420 978 425v86C978 516 978 516 973 516H649C644 516 644 516 644 511V425" /><rect x="644" y="420" width="334" height="96" /><text transform="matrix(1 0 0 1 775 426)" fill="#000000" stroke="none"><tspan dx="0 " x="0" y="9">«FeatureType»</tspan></text><text transform="matrix(1 0 0 1 671 439)" fill="#000000" font-weight="bold" stroke="none"><tspan dx="0 " x="0" y="9">Model::BodemEnGrondwatertrappenKaartvlakCollectie</tspan></text><path d="M644 456H978" /><text transform="matrix(1 0 0 1 649 460)" fill="#3C3C3C" stroke="none"><tspan dx="0 " x="0" y="9">+ </tspan></text><text transform="matrix(1 0 0 1 666 460)" fill="#3C3C3C" stroke="none"><tspan dx="0 " x="0" y="9">id: Identifier {id}</tspan></text><text transform="matrix(1 0 0 1 649 473)" fill="#3C3C3C" stroke="none"><tspan dx="0 " x="0" y="9">+ </tspan></text><text transform="matrix(1 0 0 1 666 473)" fill="#3C3C3C" stroke="none"><tspan dx="0 " x="0" y="9">naam: string</tspan></text><text transform="matrix(1 0 0 1 649 486)" fill="#3C3C3C" stroke="none"><tspan dx="0 " x="0" y="9">+ </tspan></text><text transform="matrix(1 0 0 1 666 486)" fill="#3C3C3C" stroke="none"><tspan dx="0 " x="0" y="9">type: BodemEnGrondwatertrappenKaartvlakCollectieTypeWaarde</tspan></text><path fill="#DFDFDF" stroke="none" d="M126 701C126 696 126 696 131 696H464C469 696 469 696 469 701V801C469 806 469 806 464 806H131C126 806 126 806 126 801V701" /><path fill="#FFFFFF" stroke="none" d="M123 698C123 693 123 693 128 693H461C466 693 466 693 466 698V798C466 803 466 803 461 803H128C123 803 123 803 123 798V698" /><path d="M123 698C123 693 123 693 128 693H461C466 693 466 693 466 698V798C466 803 466 803 461 803H128C123 803 123 803 123 798V698m0 0C123 693 123 693 128 693H461C466 693 466 693 466 698V798C466 803 466 803 461 803H128C123 803 123 803 123 798V698" /><rect x="123" y="693" width="343" height="110" /><text transform="matrix(1 0 0 1 259 699)" fill="#000000" stroke="none"><tspan dx="0 " x="0" y="9">«FeatureType»</tspan></text><text transform="matrix(1 0 0 1 241 712)" fill="#000000" font-weight="bold" stroke="none"><tspan dx="0 " x="0" y="9">Model::BodemObject</tspan></text><path d="M123 729H466" /><text transform="matrix(1 0 0 1 128 733)" fill="#3C3C3C" stroke="none"><tspan dx="0 " x="0" y="9">+ </tspan></text><text transform="matrix(1 0 0 1 145 733)" fill="#3C3C3C" stroke="none"><tspan dx="0 " x="0" y="9">id: Identifier {id}</tspan></text><text transform="matrix(1 0 0 1 128 746)" fill="#3C3C3C" stroke="none"><tspan dx="0 " x="0" y="9">+ </tspan></text><text transform="matrix(1 0 0 1 145 746)" fill="#3C3C3C" stroke="none"><tspan dx="0 " x="0" y="9">bodemkenmerken: BodemEnGrondwatertrappenKaarteenheid [1..3]</tspan></text><text transform="matrix(1 0 0 1 136 763)" fill="#000000" stroke="none"><tspan dx="0 " x="0" y="9">«Voidable»</tspan></text><text transform="matrix(1 0 0 1 128 776)" fill="#3C3C3C" stroke="none"><tspan dx="0 " x="0" y="9">+ </tspan></text><text transform="matrix(1 0 0 1 145 776)" fill="#3C3C3C" stroke="none"><tspan dx="0 " x="0" y="9">geometry: GM_MultiSurface</tspan></text><path fill="#DFDFDF" stroke="none" d="M859 865C859 860 859 860 864 860h278C1147 860 1147 860 1147 865v74C1147 944 1147 944 1142 944H864C859 944 859 944 859 939V865" /><path fill="#FFFFFF" stroke="none" d="M856 862C856 857 856 857 861 857h278C1144 857 1144 857 1144 862v74C1144 941 1144 941 1139 941H861C856 941 856 941 856 936V862" /><path d="M856 862C856 857 856 857 861 857h278C1144 857 1144 857 1144 862v74C1144 941 1144 941 1139 941H861C856 941 856 941 856 936V862m0 0C856 857 856 857 861 857h278C1144 857 1144 857 1144 862v74C1144 941 1144 941 1139 941H861C856 941 856 941 856 936V862" /><rect x="856" y="857" width="288" height="84" /><text transform="matrix(1 0 0 1 964 863)" fill="#000000" stroke="none"><tspan dx="0 " x="0" y="9">«FeatureType»</tspan></text><text transform="matrix(1 0 0 1 911 876)" fill="#000000" font-weight="bold" stroke="none"><tspan dx="0 " x="0" y="9">Model::WaargenomenBodemprofiel</tspan></text><path d="M856 893h288" /><text transform="matrix(1 0 0 1 869 901)" fill="#000000" stroke="none"><tspan dx="0 " x="0" y="9">«AttributeType»</tspan></text><text transform="matrix(1 0 0 1 861 914)" fill="#3C3C3C" stroke="none"><tspan dx="0 " x="0" y="9">- </tspan></text><text transform="matrix(1 0 0 1 878 914)" fill="#3C3C3C" stroke="none"><tspan dx="0 " x="0" y="9">BRO_RO_Booronderzoek: Registratieobjectcode</tspan></text><path fill="#DFDFDF" stroke="none" d="M666 663C666 658 666 658 671 658H909C914 658 914 658 914 663V799C914 804 914 804 909 804H671C666 804 666 804 666 799V663" /><path fill="#FFFFFF" stroke="none" d="M663 660C663 655 663 655 668 655H906C911 655 911 655 911 660V796C911 801 911 801 906 801H668C663 801 663 801 663 796V660" /><path d="M663 660C663 655 663 655 668 655H906C911 655 911 655 911 660V796C911 801 911 801 906 801H668C663 801 663 801 663 796V660m0 0C663 655 663 655 668 655H906C911 655 911 655 911 660V796C911 801 911 801 906 801H668C663 801 663 801 663 796V660" /><rect x="663" y="655" width="248" height="146" /><text transform="matrix(1 0 0 1 751 661)" fill="#000000" stroke="none"><tspan dx="0 " x="0" y="9">«FeatureType»</tspan></text><text transform="matrix(1 0 0 1 735 674)" fill="#000000" font-weight="bold" stroke="none"><tspan dx="0 " x="0" y="9">Model::Bodemprofiel</tspan></text><path d="M663 691H911" /><text transform="matrix(1 0 0 1 676 699)" fill="#000000" stroke="none"><tspan dx="0 " x="0" y="9">«AttributeType»</tspan></text><text transform="matrix(1 0 0 1 668 712)" fill="#3C3C3C" stroke="none"><tspan dx="0 " x="0" y="9">- </tspan></text><text transform="matrix(1 0 0 1 685 712)" fill="#3C3C3C" stroke="none"><tspan dx="0 " x="0" y="9">bodemprofiel id: Identifier</tspan></text><text transform="matrix(1 0 0 1 668 725)" fill="#3C3C3C" stroke="none"><tspan dx="0 " x="0" y="9">- </tspan></text><text transform="matrix(1 0 0 1 685 725)" fill="#3C3C3C" stroke="none"><tspan dx="0 " x="0" y="9">WRBSoilName: WRBSoilNameType</tspan></text><text transform="matrix(1 0 0 1 668 738)" fill="#3C3C3C" stroke="none"><tspan dx="0 " x="0" y="9">- </tspan></text><text transform="matrix(1 0 0 1 685 738)" fill="#3C3C3C" stroke="none"><tspan dx="0 " x="0" y="9">otherSoilName: OtherSoilNameType</tspan></text><text transform="matrix(1 0 0 1 676 755)" fill="#000000" stroke="none"><tspan dx="0 " x="0" y="9">«AttributeType, Voidable»</tspan></text><text transform="matrix(1 0 0 1 668 768)" fill="#3C3C3C" stroke="none"><tspan dx="0 " x="0" y="9">- </tspan></text><text transform="matrix(1 0 0 1 685 768)" fill="#3C3C3C" stroke="none"><tspan dx="0 " x="0" y="9">validFrom: Date</tspan></text><text transform="matrix(1 0 0 1 668 781)" fill="#3C3C3C" stroke="none"><tspan dx="0 " x="0" y="9">- </tspan></text><text transform="matrix(1 0 0 1 685 781)" fill="#3C3C3C" stroke="none"><tspan dx="0 " x="0" y="9">validTo: DateTime</tspan></text><path fill="#DFDFDF" stroke="none" d="M183 97C183 92 183 92 188 92H379C384 92 384 92 384 97v52C384 154 384 154 379 154H188C183 154 183 154 183 149V97" /><path stroke="none" fill="#FFFFFF" d="M180 94C180 89 180 89 185 89H376C381 89 381 89 381 94v52C381 151 381 151 376 151H185C180 151 180 151 180 146V94" /><path stroke="#C0C0C0" d="M180 94C180 89 180 89 185 89H376C381 89 381 89 381 94v52C381 151 381 151 376 151H185C180 151 180 151 180 146V94m0 0C180 89 180 89 185 89H376C381 89 381 89 381 94v52C381 151 381 151 376 151H185C180 151 180 151 180 146V94" /><rect stroke="#C0C0C0" x="180" y="89" width="201" height="62" /><text transform="matrix(1 0 0 1 246 95)" fill="#000000" stroke="none"><tspan dx="0 " x="0" y="9">«featureType»</tspan></text><text transform="matrix(1 0 0 1 198 108)" fill="#000000" font-weight="bold" font-style="italic" stroke="none"><tspan dx="0 " x="0" y="9">FeatureTypes::RegistratieObject</tspan></text><path fill="#DFDFDF" stroke="none" d="M625 572C625 567 625 567 630 567h372C1007 567 1007 567 1007 572v36C1007 613 1007 613 1002 613H630C625 613 625 613 625 608V572" /><path stroke="none" fill="#FFFFFF" d="M622 569C622 564 622 564 627 564H999C1004 564 1004 564 1004 569v36C1004 610 1004 610 999 610H627C622 610 622 610 622 605V569" /><path stroke="#C0C0C0" d="M622 569C622 564 622 564 627 564H999C1004 564 1004 564 1004 569v36C1004 610 1004 610 999 610H627C622 610 622 610 622 605V569m0 0C622 564 622 564 627 564H999C1004 564 1004 564 1004 569v36C1004 610 1004 610 999 610H627C622 610 622 610 622 605V569" /><rect stroke="#C0C0C0" x="622" y="564" width="382" height="46" /><text transform="matrix(1 0 0 1 757 570)" fill="#000000" stroke="none"><tspan dx="0 " x="0" y="9">«enumeration,Codelist»</tspan></text><text transform="matrix(1 0 0 1 642 583)" fill="#000000" font-weight="bold" stroke="none"><tspan dx="0 " x="0" y="9">Model::BodemEnGrondwatertrappenKaartvlakCollectieTypeWaarde</tspan></text><path fill="#DFDFDF" stroke="none" d="M41 1110C41 1105 41 1105 46 1105H235C240 1105 240 1105 240 1110v44C240 1159 240 1159 235 1159H46C41 1159 41 1159 41 1154v-44" /><path stroke="none" fill="#D7FCCE" d="M38 1107C38 1102 38 1102 43 1102H232C237 1102 237 1102 237 1107v44C237 1156 237 1156 232 1156H43C38 1156 38 1156 38 1151v-44" /><path stroke="#C0C0C0" d="M38 1107C38 1102 38 1102 43 1102H232C237 1102 237 1102 237 1107v44C237 1156 237 1156 232 1156H43C38 1156 38 1156 38 1151v-44m0 0C38 1102 38 1102 43 1102H232C237 1102 237 1102 237 1107v44C237 1156 237 1156 232 1156H43C38 1156 38 1156 38 1151v-44" /><rect stroke="#C0C0C0" x="38" y="1102" width="199" height="54" /><text transform="matrix(1 0 0 1 81 1108)" fill="#000000" stroke="none"><tspan dx="0 " x="0" y="9">«enumeration,Codelist»</tspan></text><text transform="matrix(1 0 0 1 64 1121)" fill="#000000" font-weight="bold" stroke="none"><tspan dx="0 " x="0" y="9">Model::BodemHellingWaarde</tspan></text><path fill="#DFDFDF" stroke="none" d="M279 1114C279 1109 279 1109 284 1109H494C499 1109 499 1109 499 1114v41C499 1160 499 1160 494 1160H284C279 1160 279 1160 279 1155v-41" /><path stroke="none" fill="#D7FCCE" d="M276 1111C276 1106 276 1106 281 1106H491C496 1106 496 1106 496 1111v41C496 1157 496 1157 491 1157H281C276 1157 276 1157 276 1152v-41" /><path stroke="#C0C0C0" d="M276 1111C276 1106 276 1106 281 1106H491C496 1106 496 1106 496 1111v41C496 1157 496 1157 491 1157H281C276 1157 276 1157 276 1152v-41m0 0C276 1106 276 1106 281 1106H491C496 1106 496 1106 496 1111v41C496 1157 496 1157 491 1157H281C276 1157 276 1157 276 1152v-41" /><rect stroke="#C0C0C0" x="276" y="1106" width="220" height="51" /><text transform="matrix(1 0 0 1 330 1112)" fill="#000000" stroke="none"><tspan dx="0 " x="0" y="9">«enumeration,Codelist»</tspan></text><text transform="matrix(1 0 0 1 299 1125)" fill="#000000" font-weight="bold" stroke="none"><tspan dx="0 " x="0" y="9">Model::BodemHoofdklasseWaarde</tspan></text><path fill="#DFDFDF" stroke="none" d="M484 1202C484 1197 484 1197 489 1197H749C754 1197 754 1197 754 1202v31C754 1238 754 1238 749 1238H489C484 1238 484 1238 484 1233v-31" /><path stroke="none" fill="#D7FCCE" d="M481 1199C481 1194 481 1194 486 1194H746C751 1194 751 1194 751 1199v31C751 1235 751 1235 746 1235H486C481 1235 481 1235 481 1230v-31" /><path stroke="#C0C0C0" d="M481 1199C481 1194 481 1194 486 1194H746C751 1194 751 1194 751 1199v31C751 1235 751 1235 746 1235H486C481 1235 481 1235 481 1230v-31m0 0C481 1194 481 1194 486 1194H746C751 1194 751 1194 751 1199v31C751 1235 751 1235 746 1235H486C481 1235 481 1235 481 1230v-31" /><rect stroke="#C0C0C0" x="481" y="1194" width="270" height="41" /><text transform="matrix(1 0 0 1 560 1200)" fill="#000000" stroke="none"><tspan dx="0 " x="0" y="9">«enumeration,Codelist»</tspan></text><text transform="matrix(1 0 0 1 504 1213)" fill="#000000" font-weight="bold" stroke="none"><tspan dx="0 " x="0" y="9">Model::BodemKenmerkenBovenlaagWaarde</tspan></text><path fill="#DFDFDF" stroke="none" d="M46 1198C46 1193 46 1193 51 1193H439C444 1193 444 1193 444 1198v32C444 1235 444 1235 439 1235H51C46 1235 46 1235 46 1230v-32" /><path stroke="none" fill="#D7FCCE" d="M43 1195C43 1190 43 1190 48 1190H436C441 1190 441 1190 441 1195v32C441 1232 441 1232 436 1232H48C43 1232 43 1232 43 1227v-32" /><path stroke="#C0C0C0" d="M43 1195C43 1190 43 1190 48 1190H436C441 1190 441 1190 441 1195v32C441 1232 441 1232 436 1232H48C43 1232 43 1232 43 1227v-32m0 0C43 1190 43 1190 48 1190H436C441 1190 441 1190 441 1195v32C441 1232 441 1232 436 1232H48C43 1232 43 1232 43 1227v-32" /><rect stroke="#C0C0C0" x="43" y="1190" width="398" height="42" /><text transform="matrix(1 0 0 1 186 1196)" fill="#000000" stroke="none"><tspan dx="0 " x="0" y="9">«enumeration,Codelist»</tspan></text><text transform="matrix(1 0 0 1 131 1209)" fill="#000000" font-weight="bold" stroke="none"><tspan dx="0 " x="0" y="9">Model::BodemKenmerkenOnderlaagWaarde</tspan></text><path fill="#DFDFDF" stroke="none" d="M533 1119C533 1114 533 1114 538 1114H932C937 1114 937 1114 937 1119v24C937 1148 937 1148 932 1148H538C533 1148 533 1148 533 1143v-24" /><path stroke="none" fill="#D7FCCE" d="M530 1116C530 1111 530 1111 535 1111H929C934 1111 934 1111 934 1116v24C934 1145 934 1145 929 1145H535C530 1145 530 1145 530 1140v-24" /><path stroke="#C0C0C0" d="M530 1116C530 1111 530 1111 535 1111H929C934 1111 934 1111 934 1116v24C934 1145 934 1145 929 1145H535C530 1145 530 1145 530 1140v-24m0 0C530 1111 530 1111 535 1111H929C934 1111 934 1111 934 1116v24C934 1145 934 1145 929 1145H535C530 1145 530 1145 530 1140v-24" /><rect stroke="#C0C0C0" x="530" y="1111" width="404" height="34" /><text transform="matrix(1 0 0 1 676 1117)" fill="#000000" stroke="none"><tspan dx="0 " x="0" y="9">«enumeration,Codelist»</tspan></text><text transform="matrix(1 0 0 1 634 1130)" fill="#000000" font-weight="bold" stroke="none"><tspan dx="0 " x="0" y="9">Model::BodemLegendaEenheidWaarde</tspan></text><path fill="#DFDFDF" stroke="none" d="M781 1204C781 1199 781 1199 786 1199H930C935 1199 935 1199 935 1204v54C935 1263 935 1263 930 1263H786C781 1263 781 1263 781 1258v-54" /><path stroke="none" fill="#D7FCCE" d="M778 1201C778 1196 778 1196 783 1196H927C932 1196 932 1196 932 1201v54C932 1260 932 1260 927 1260H783C778 1260 778 1260 778 1255v-54" /><path stroke="#C0C0C0" d="M778 1201C778 1196 778 1196 783 1196H927C932 1196 932 1196 932 1201v54C932 1260 932 1260 927 1260H783C778 1260 778 1260 778 1255v-54m0 0C778 1196 778 1196 783 1196H927C932 1196 932 1196 932 1201v54C932 1260 932 1260 927 1260H783C778 1260 778 1260 778 1255v-54" /><rect stroke="#C0C0C0" x="778" y="1196" width="154" height="64" /><text transform="matrix(1 0 0 1 799 1202)" fill="#000000" stroke="none"><tspan dx="0 " x="0" y="9">«enumeration,Codelist»</tspan></text><text transform="matrix(1 0 0 1 836 1215)" fill="#000000" font-weight="bold" stroke="none"><tspan dx="0 " x="0" y="9">Model::</tspan></text><text transform="matrix(1 0 0 1 796 1227)" fill="#000000" font-weight="bold" stroke="none"><tspan dx="0 " x="0" y="9">GrondwatertrapWaarde</tspan></text><path fill="#DFDFDF" stroke="none" d="M111 940C111 935 111 935 116 935H444C449 935 449 935 449 940v118C449 1063 449 1063 444 1063H116C111 1063 111 1063 111 1058V940" /><path fill="#CCFFFF" stroke="none" d="M108 937C108 932 108 932 113 932H441C446 932 446 932 446 937v118C446 1060 446 1060 441 1060H113C108 1060 108 1060 108 1055V937" /><path d="M108 937C108 932 108 932 113 932H441C446 932 446 932 446 937v118C446 1060 446 1060 441 1060H113C108 1060 108 1060 108 1055V937m0 0C108 932 108 932 113 932H441C446 932 446 932 446 937v118C446 1060 446 1060 441 1060H113C108 1060 108 1060 108 1055V937" /><rect x="108" y="932" width="338" height="128" /><text transform="matrix(1 0 0 1 250 938)" fill="#000000" stroke="none"><tspan dx="0 " x="0" y="9">«Datatype»</tspan></text><text transform="matrix(1 0 0 1 151 951)" fill="#000000" font-weight="bold" stroke="none"><tspan dx="0 " x="0" y="9">Model::BodemEnGrondwatertrappenKaarteenheid</tspan></text><path d="M108 968H446" /><text transform="matrix(1 0 0 1 113 972)" fill="#3C3C3C" stroke="none"><tspan dx="0 " x="0" y="9">+ </tspan></text><text transform="matrix(1 0 0 1 130 972)" fill="#3C3C3C" stroke="none"><tspan dx="0 " x="0" y="9">bodemHoofdklasse: BodemHoofdklasseWaarde</tspan></text><text transform="matrix(1 0 0 1 113 985)" fill="#3C3C3C" stroke="none"><tspan dx="0 " x="0" y="9">+ </tspan></text><text transform="matrix(1 0 0 1 130 985)" fill="#3C3C3C" stroke="none"><tspan dx="0 " x="0" y="9">bodemlegendaEenheid: BodemLegendaEenheidWaarde</tspan></text><text transform="matrix(1 0 0 1 113 998)" fill="#3C3C3C" stroke="none"><tspan dx="0 " x="0" y="9">+ </tspan></text><text transform="matrix(1 0 0 1 130 998)" fill="#3C3C3C" stroke="none"><tspan dx="0 " x="0" y="9">bodemkenmerkenBovenlaag: BodemKenmerkenBovenlaagWaarde</tspan></text><text transform="matrix(1 0 0 1 113 1011)" fill="#3C3C3C" stroke="none"><tspan dx="0 " x="0" y="9">+ </tspan></text><text transform="matrix(1 0 0 1 130 1011)" fill="#3C3C3C" stroke="none"><tspan dx="0 " x="0" y="9">bodemkenmerkenOnderlaag: BodemKenmerkenOnderlaagWaarde</tspan></text><text transform="matrix(1 0 0 1 113 1024)" fill="#3C3C3C" stroke="none"><tspan dx="0 " x="0" y="9">+ </tspan></text><text transform="matrix(1 0 0 1 130 1024)" fill="#3C3C3C" stroke="none"><tspan dx="0 " x="0" y="9">grondwatertrap: GrondwatertrapWaarde</tspan></text><text transform="matrix(1 0 0 1 113 1037)" fill="#3C3C3C" stroke="none"><tspan dx="0 " x="0" y="9">+ </tspan></text><text transform="matrix(1 0 0 1 130 1037)" fill="#3C3C3C" stroke="none"><tspan dx="0 " x="0" y="9">bodemHelling: BodemHellingWaarde</tspan></text><path fill="#DFDFDF" stroke="none" d="M579 17C579 12 579 12 584 12H832C837 12 837 12 837 17V234C837 239 837 239 832 239H584C579 239 579 239 579 234V17" /><path stroke="none" fill="#FFFFFF" d="M576 14C576 9 576 9 581 9H829C834 9 834 9 834 14V231C834 236 834 236 829 236H581C576 236 576 236 576 231V14" /><path stroke="#C0C0C0" d="M576 14C576 9 576 9 581 9H829C834 9 834 9 834 14V231C834 236 834 236 829 236H581C576 236 576 236 576 231V14m0 0C576 9 576 9 581 9H829C834 9 834 9 834 14V231C834 236 834 236 829 236H581C576 236 576 236 576 231V14" /><rect stroke="#C0C0C0" x="576" y="9" width="258" height="227" /><text transform="matrix(1 0 0 1 679 15)" fill="#000000" stroke="none"><tspan dx="0 " x="0" y="9">«datatype»</tspan></text><text transform="matrix(1 0 0 1 596 28)" fill="#000000" font-weight="bold" stroke="none"><tspan dx="0 " x="0" y="9">Citation and responsible party information::</tspan></text><text transform="matrix(1 0 0 1 678 40)" fill="#000000" font-weight="bold" stroke="none"><tspan dx="0 " x="0" y="9">CI_Citation</tspan></text><path stroke="#C0C0C0" d="M576 57H834" /><text transform="matrix(1 0 0 1 581 61)" fill="#3C3C3C" stroke="none"><tspan dx="0 " x="0" y="9">+ </tspan></text><text transform="matrix(1 0 0 1 598 61)" fill="#3C3C3C" stroke="none"><tspan dx="0 " x="0" y="9">title: CharacterString</tspan></text><text transform="matrix(1 0 0 1 581 74)" fill="#3C3C3C" stroke="none"><tspan dx="0 " x="0" y="9">+ </tspan></text><text transform="matrix(1 0 0 1 598 74)" fill="#3C3C3C" stroke="none"><tspan dx="0 " x="0" y="9">alternateTitle: CharacterString [0..*]</tspan></text><text transform="matrix(1 0 0 1 581 87)" fill="#3C3C3C" stroke="none"><tspan dx="0 " x="0" y="9">+ </tspan></text><text transform="matrix(1 0 0 1 598 87)" fill="#3C3C3C" stroke="none"><tspan dx="0 " x="0" y="9">date: CI_Date [1..*]</tspan></text><text transform="matrix(1 0 0 1 581 100)" fill="#3C3C3C" stroke="none"><tspan dx="0 " x="0" y="9">+ </tspan></text><text transform="matrix(1 0 0 1 598 100)" fill="#3C3C3C" stroke="none"><tspan dx="0 " x="0" y="9">edition: CharacterString [0..1]</tspan></text><text transform="matrix(1 0 0 1 581 113)" fill="#3C3C3C" stroke="none"><tspan dx="0 " x="0" y="9">+ </tspan></text><text transform="matrix(1 0 0 1 598 113)" fill="#3C3C3C" stroke="none"><tspan dx="0 " x="0" y="9">editionDate: Date [0..1]</tspan></text><text transform="matrix(1 0 0 1 581 126)" fill="#3C3C3C" stroke="none"><tspan dx="0 " x="0" y="9">+ </tspan></text><text transform="matrix(1 0 0 1 598 126)" fill="#3C3C3C" stroke="none"><tspan dx="0 " x="0" y="9">identifier: MD_Identifier [0..*]</tspan></text><text transform="matrix(1 0 0 1 581 139)" fill="#3C3C3C" stroke="none"><tspan dx="0 " x="0" y="9">+ </tspan></text><text transform="matrix(1 0 0 1 598 139)" fill="#3C3C3C" stroke="none"><tspan dx="0 " x="0" y="9">citedResponsibleParty: CI_ResponsibleParty [0..*]</tspan></text><text transform="matrix(1 0 0 1 581 152)" fill="#3C3C3C" stroke="none"><tspan dx="0 " x="0" y="9">+ </tspan></text><text transform="matrix(1 0 0 1 598 152)" fill="#3C3C3C" stroke="none"><tspan dx="0 " x="0" y="9">presentationForm: CI_PresentationFormCode [0..*]</tspan></text><text transform="matrix(1 0 0 1 581 165)" fill="#3C3C3C" stroke="none"><tspan dx="0 " x="0" y="9">+ </tspan></text><text transform="matrix(1 0 0 1 598 165)" fill="#3C3C3C" stroke="none"><tspan dx="0 " x="0" y="9">series: CI_Series [0..1]</tspan></text><text transform="matrix(1 0 0 1 581 178)" fill="#3C3C3C" stroke="none"><tspan dx="0 " x="0" y="9">+ </tspan></text><text transform="matrix(1 0 0 1 598 178)" fill="#3C3C3C" stroke="none"><tspan dx="0 " x="0" y="9">otherCitationDetails: CharacterString [0..1]</tspan></text><text transform="matrix(1 0 0 1 581 191)" fill="#3C3C3C" stroke="none"><tspan dx="0 " x="0" y="9">+ </tspan></text><text transform="matrix(1 0 0 1 598 191)" fill="#3C3C3C" stroke="none"><tspan dx="0 " x="0" y="9">collectiveTitle: CharacterString [0..1]</tspan></text><text transform="matrix(1 0 0 1 581 204)" fill="#3C3C3C" stroke="none"><tspan dx="0 " x="0" y="9">+ </tspan></text><text transform="matrix(1 0 0 1 598 204)" fill="#3C3C3C" stroke="none"><tspan dx="0 " x="0" y="9">ISBN: CharacterString [0..1]</tspan></text><text transform="matrix(1 0 0 1 581 217)" fill="#3C3C3C" stroke="none"><tspan dx="0 " x="0" y="9">+ </tspan></text><text transform="matrix(1 0 0 1 598 217)" fill="#3C3C3C" stroke="none"><tspan dx="0 " x="0" y="9">ISSN: CharacterString [0..1]</tspan></text><path fill="#DFDFDF" stroke="none" d="M861 22C861 17 861 17 866 17h208C1079 17 1079 17 1079 22V135C1079 140 1079 140 1074 140H866C861 140 861 140 861 135V22" /><path stroke="none" fill="#FFFFFF" d="M858 19C858 14 858 14 863 14h208C1076 14 1076 14 1076 19V132C1076 137 1076 137 1071 137H863C858 137 858 137 858 132V19" /><path stroke="#C0C0C0" d="M858 19C858 14 858 14 863 14h208C1076 14 1076 14 1076 19V132C1076 137 1076 137 1071 137H863C858 137 858 137 858 132V19m0 0C858 14 858 14 863 14h208C1076 14 1076 14 1076 19V132C1076 137 1076 137 1071 137H863C858 137 858 137 858 132V19" /><rect stroke="#C0C0C0" x="858" y="14" width="218" height="123" /><text transform="matrix(1 0 0 1 941 20)" fill="#000000" stroke="none"><tspan dx="0 " x="0" y="9">«datatype»</tspan></text><text transform="matrix(1 0 0 1 858 33)" fill="#000000" font-weight="bold" stroke="none"><tspan dx="0 " x="0" y="9">Citation and responsible party information::</tspan></text><text transform="matrix(1 0 0 1 914 45)" fill="#000000" font-weight="bold" stroke="none"><tspan dx="0 " x="0" y="9">CI_ResponsibleParty</tspan></text><path stroke="#C0C0C0" d="M858 62h218" /><text transform="matrix(1 0 0 1 863 66)" fill="#3C3C3C" stroke="none"><tspan dx="0 " x="0" y="9">+ </tspan></text><text transform="matrix(1 0 0 1 880 66)" fill="#3C3C3C" stroke="none"><tspan dx="0 " x="0" y="9">individualName: CharacterString [0..1]</tspan></text><text transform="matrix(1 0 0 1 863 79)" fill="#3C3C3C" stroke="none"><tspan dx="0 " x="0" y="9">+ </tspan></text><text transform="matrix(1 0 0 1 880 79)" fill="#3C3C3C" stroke="none"><tspan dx="0 " x="0" y="9">organisationName: CharacterString [0..1]</tspan></text><text transform="matrix(1 0 0 1 863 92)" fill="#3C3C3C" stroke="none"><tspan dx="0 " x="0" y="9">+ </tspan></text><text transform="matrix(1 0 0 1 880 92)" fill="#3C3C3C" stroke="none"><tspan dx="0 " x="0" y="9">positionName: CharacterString [0..1]</tspan></text><text transform="matrix(1 0 0 1 863 105)" fill="#3C3C3C" stroke="none"><tspan dx="0 " x="0" y="9">+ </tspan></text><text transform="matrix(1 0 0 1 880 105)" fill="#3C3C3C" stroke="none"><tspan dx="0 " x="0" y="9">contactInfo: CI_Contact [0..1]</tspan></text><text transform="matrix(1 0 0 1 863 118)" fill="#3C3C3C" stroke="none"><tspan dx="0 " x="0" y="9">+ </tspan></text><text transform="matrix(1 0 0 1 880 118)" fill="#3C3C3C" stroke="none"><tspan dx="0 " x="0" y="9">role: CI_RoleCode</tspan></text><path fill="#DFDFDF" stroke="none" d="M1101 18C1101 13 1101 13 1106 13h125C1236 13 1236 13 1236 18V265C1236 270 1236 270 1231 270H1106C1101 270 1101 270 1101 265V18" /><path stroke="none" fill="#FFFFFF" d="M1098 15C1098 10 1098 10 1103 10h125C1233 10 1233 10 1233 15V262C1233 267 1233 267 1228 267H1103C1098 267 1098 267 1098 262V15" /><path stroke="#C0C0C0" d="M1098 15C1098 10 1098 10 1103 10h125C1233 10 1233 10 1233 15V262C1233 267 1233 267 1228 267H1103C1098 267 1098 267 1098 262V15m0 0C1098 10 1098 10 1103 10h125C1233 10 1233 10 1233 15V262C1233 267 1233 267 1228 267H1103C1098 267 1098 267 1098 262V15" /><rect stroke="#C0C0C0" x="1098" y="10" width="135" height="257" /><text transform="matrix(1 0 0 1 1139 16)" fill="#000000" stroke="none"><tspan dx="0 " x="0" y="9">«CodeList»</tspan></text><text transform="matrix(1 0 0 1 1102 29)" fill="#000000" font-weight="bold" stroke="none"><tspan dx="0 " x="0" y="9">Citation and responsible </tspan></text><text transform="matrix(1 0 0 1 1120 41)" fill="#000000" font-weight="bold" stroke="none"><tspan dx="0 " x="0" y="9">party information::</tspan></text><text transform="matrix(1 0 0 1 1099 53)" fill="#000000" font-weight="bold" stroke="none"><tspan dx="0 " x="0" y="9">CI_PresentationFormCode</tspan></text><path stroke="#C0C0C0" d="M1098 70h135" /><text transform="matrix(1 0 0 1 1103 74)" fill="#3C3C3C" stroke="none"><tspan dx="0 " x="0" y="9">+ </tspan></text><text transform="matrix(1 0 0 1 1120 74)" fill="#3C3C3C" stroke="none"><tspan dx="0 " x="0" y="9">documentDigital</tspan></text><text transform="matrix(1 0 0 1 1103 87)" fill="#3C3C3C" stroke="none"><tspan dx="0 " x="0" y="9">+ </tspan></text><text transform="matrix(1 0 0 1 1120 87)" fill="#3C3C3C" stroke="none"><tspan dx="0 " x="0" y="9">documentHardcopy</tspan></text><text transform="matrix(1 0 0 1 1103 100)" fill="#3C3C3C" stroke="none"><tspan dx="0 " x="0" y="9">+ </tspan></text><text transform="matrix(1 0 0 1 1120 100)" fill="#3C3C3C" stroke="none"><tspan dx="0 " x="0" y="9">imageDigital</tspan></text><text transform="matrix(1 0 0 1 1103 113)" fill="#3C3C3C" stroke="none"><tspan dx="0 " x="0" y="9">+ </tspan></text><text transform="matrix(1 0 0 1 1120 113)" fill="#3C3C3C" stroke="none"><tspan dx="0 " x="0" y="9">imageHardcopy</tspan></text><text transform="matrix(1 0 0 1 1103 126)" fill="#3C3C3C" stroke="none"><tspan dx="0 " x="0" y="9">+ </tspan></text><text transform="matrix(1 0 0 1 1120 126)" fill="#3C3C3C" stroke="none"><tspan dx="0 " x="0" y="9">mapDigital</tspan></text><text transform="matrix(1 0 0 1 1103 139)" fill="#3C3C3C" stroke="none"><tspan dx="0 " x="0" y="9">+ </tspan></text><text transform="matrix(1 0 0 1 1120 139)" fill="#3C3C3C" stroke="none"><tspan dx="0 " x="0" y="9">mapHardcopy</tspan></text><text transform="matrix(1 0 0 1 1103 152)" fill="#3C3C3C" stroke="none"><tspan dx="0 " x="0" y="9">+ </tspan></text><text transform="matrix(1 0 0 1 1120 152)" fill="#3C3C3C" stroke="none"><tspan dx="0 " x="0" y="9">modelDigital</tspan></text><text transform="matrix(1 0 0 1 1103 165)" fill="#3C3C3C" stroke="none"><tspan dx="0 " x="0" y="9">+ </tspan></text><text transform="matrix(1 0 0 1 1120 165)" fill="#3C3C3C" stroke="none"><tspan dx="0 " x="0" y="9">modelHardcopy</tspan></text><text transform="matrix(1 0 0 1 1103 178)" fill="#3C3C3C" stroke="none"><tspan dx="0 " x="0" y="9">+ </tspan></text><text transform="matrix(1 0 0 1 1120 178)" fill="#3C3C3C" stroke="none"><tspan dx="0 " x="0" y="9">profileDigital</tspan></text><text transform="matrix(1 0 0 1 1103 191)" fill="#3C3C3C" stroke="none"><tspan dx="0 " x="0" y="9">+ </tspan></text><text transform="matrix(1 0 0 1 1120 191)" fill="#3C3C3C" stroke="none"><tspan dx="0 " x="0" y="9">profileHardcopy</tspan></text><text transform="matrix(1 0 0 1 1103 204)" fill="#3C3C3C" stroke="none"><tspan dx="0 " x="0" y="9">+ </tspan></text><text transform="matrix(1 0 0 1 1120 204)" fill="#3C3C3C" stroke="none"><tspan dx="0 " x="0" y="9">tableDigital</tspan></text><text transform="matrix(1 0 0 1 1103 217)" fill="#3C3C3C" stroke="none"><tspan dx="0 " x="0" y="9">+ </tspan></text><text transform="matrix(1 0 0 1 1120 217)" fill="#3C3C3C" stroke="none"><tspan dx="0 " x="0" y="9">tableHardcopy</tspan></text><text transform="matrix(1 0 0 1 1103 230)" fill="#3C3C3C" stroke="none"><tspan dx="0 " x="0" y="9">+ </tspan></text><text transform="matrix(1 0 0 1 1120 230)" fill="#3C3C3C" stroke="none"><tspan dx="0 " x="0" y="9">videoDigital</tspan></text><text transform="matrix(1 0 0 1 1103 243)" fill="#3C3C3C" stroke="none"><tspan dx="0 " x="0" y="9">+ </tspan></text><text transform="matrix(1 0 0 1 1120 243)" fill="#3C3C3C" stroke="none"><tspan dx="0 " x="0" y="9">videoHardcopy</tspan></text><path d="M414 493H644" /><path fill="#FCF2E3" d="M634 498l10 -5l-10 -5l-10 5l10 5" /><path d="M414 493l15 6m-15 -6l15 -6" /><path d="M281 590V693m0 0l-6 -15m6 15l6 -15" /><path d="M280 345V477" /><path fill="#000000" d="M285 355l-5 -10l-5 10l5 10l5 -10" /><path d="M280 477l-6 -15m6 15l6 -15" /><path d="M281 249V152" /><path fill="#FCF2E3" d="M287 168H275l6 -16l6 16" /><path d="M694 864V802" /><path fill="#FCF2E3" d="M700 818H688l6 -16l6 16" /><path d="M467 776H586m0 0v88m0 0l-6 -15m6 15l6 -15" /><path d="M856 899H726" /><path d="M856 899l-15 -6m15 6l-15 6" /><path d="M884 857V802" /><path fill="#FCF2E3" d="M890 818H878l6 -16l6 16" /><path d="M285 932V804" /><path d="M285 932l6 -15m-6 15l-6 -15" /><g transform="matrix(1 0 0 -1 240 617)"><rect fill="#FFFFFF" stroke="none" x="0" width="96" y="-11" height="11" /></g><text transform="matrix(1 0 0 1 240 617)" fill="#000000" stroke="none"><tspan dx="0 " x="0" y="9">heeft_bodemobject</tspan></text><g transform="matrix(1 0 0 -1 158 667)"><rect fill="#FFFFFF" stroke="none" x="0" width="116" y="-11" height="11" /></g><text transform="matrix(1 0 0 1 158 667)" fill="#000000" stroke="none"><tspan dx="0 " x="0" y="9">+inkaartGebrachtObject</tspan></text><g transform="matrix(1 0 0 -1 301 673)"><rect fill="#FFFFFF" stroke="none" x="0" width="19" y="-11" height="11" /></g><text transform="matrix(1 0 0 1 301 673)" fill="#000000" stroke="none"><tspan dx="0 " x="0" y="9">1..1</tspan></text><g transform="matrix(1 0 0 -1 551 796)"><rect fill="#FFFFFF" stroke="none" x="0" width="83" y="-11" height="11" /></g><text transform="matrix(1 0 0 1 551 796)" fill="#000000" stroke="none"><tspan dx="0 " x="0" y="9">is_gebaseerd_op</tspan></text><g transform="matrix(1 0 0 -1 542 846)"><rect fill="#FFFFFF" stroke="none" x="0" width="38" y="-11" height="11" /></g><text transform="matrix(1 0 0 1 542 846)" fill="#000000" stroke="none"><tspan dx="0 " x="0" y="9">+profiel</tspan></text><g transform="matrix(1 0 0 -1 594 846)"><rect fill="#FFFFFF" stroke="none" x="0" width="17" y="-11" height="11" /></g><text transform="matrix(1 0 0 1 594 846)" fill="#000000" stroke="none"><tspan dx="0 " x="0" y="9">1..*</tspan></text><g transform="matrix(1 0 0 -1 247 389)"><rect fill="#FFFFFF" stroke="none" x="0" width="67" y="-11" height="11" /></g><text transform="matrix(1 0 0 1 247 389)" fill="#000000" stroke="none"><tspan dx="0 " x="0" y="9">heeft_vlakken</tspan></text><g transform="matrix(1 0 0 -1 230 456)"><rect fill="#FFFFFF" stroke="none" x="0" width="25" y="-11" height="11" /></g><text transform="matrix(1 0 0 1 230 456)" fill="#000000" stroke="none"><tspan dx="0 " x="0" y="9">+vlak</tspan></text><g transform="matrix(1 0 0 -1 288 459)"><rect fill="#FFFFFF" stroke="none" x="0" width="17" y="-11" height="11" /></g><text transform="matrix(1 0 0 1 288 459)" fill="#000000" stroke="none"><tspan dx="0 " x="0" y="9">1..*</tspan></text><g transform="matrix(1 0 0 -1 417 475)"><rect fill="#FFFFFF" stroke="none" x="0" width="25" y="-11" height="11" /></g><text transform="matrix(1 0 0 1 417 475)" fill="#000000" stroke="none"><tspan dx="0 " x="0" y="9">+vlak</tspan></text><g transform="matrix(1 0 0 -1 417 498)"><rect fill="#FFFFFF" stroke="none" x="0" width="17" y="-11" height="11" /></g><text transform="matrix(1 0 0 1 417 498)" fill="#000000" stroke="none"><tspan dx="0 " x="0" y="9">1..*</tspan></text><g transform="matrix(1 0 0 -1 488 479)"><rect fill="#FFFFFF" stroke="none" x="0" width="86" y="-11" height="11" /></g><text transform="matrix(1 0 0 1 488 479)" fill="#000000" stroke="none"><tspan dx="0 " x="0" y="9">beschrijft_vlakken</tspan></text><g transform="matrix(1 0 0 -1 237 915)"><rect fill="#FFFFFF" stroke="none" x="0" width="47" y="-11" height="11" /></g><text transform="matrix(1 0 0 1 237 915)" fill="#000000" stroke="none"><tspan dx="0 " x="0" y="9">+eenheid</tspan></text><g transform="matrix(1 0 0 -1 175 854)"><rect fill="#FFFFFF" stroke="none" x="0" width="229" y="-11" height="11" /></g><text transform="matrix(1 0 0 1 175 854)" fill="#000000" stroke="none"><tspan dx="0 " x="0" y="9">heeft_bodem_en_grondwatertrappen_eenheid</tspan></text><g transform="matrix(1 0 0 -1 817 881)"><rect fill="#FFFFFF" stroke="none" x="0" width="38" y="-11" height="11" /></g><text transform="matrix(1 0 0 1 817 881)" fill="#000000" stroke="none"><tspan dx="0 " x="0" y="9">+profiel</tspan></text><g transform="matrix(1 0 0 -1 840 911)"><rect fill="#FFFFFF" stroke="none" x="0" width="17" y="-11" height="11" /></g><text transform="matrix(1 0 0 1 840 911)" fill="#000000" stroke="none"><tspan dx="0 " x="0" y="9">1..*</tspan></text><g transform="matrix(1 0 0 -1 741 903)"><rect fill="#FFFFFF" stroke="none" x="0" width="65" y="-11" height="11" /></g><text transform="matrix(1 0 0 1 741 903)" fill="#000000" stroke="none"><tspan dx="0 " x="0" y="9">afgeleid_van</tspan></text><text transform="matrix(1 0 0 1 40 20)" fill="#0000C8" stroke="none"><tspan dx="0 " x="0" y="9">Name:</tspan></text><text transform="matrix(1 0 0 1 40 33)" fill="#0000C8" stroke="none"><tspan dx="0 " x="0" y="9">Package:</tspan></text><text transform="matrix(1 0 0 1 40 46)" fill="#0000C8" stroke="none"><tspan dx="0 " x="0" y="9">Version:</tspan></text><text transform="matrix(1 0 0 1 40 59)" fill="#0000C8" stroke="none"><tspan dx="0 " x="0" y="9">Author:</tspan></text><text transform="matrix(1 0 0 1 94 20)" fill="#000096" stroke="none"><tspan dx="0 " x="0" y="9">Bodem- en Grondwatertrappenkaart 1:50.000</tspan></text><text transform="matrix(1 0 0 1 94 33)" fill="#000096" stroke="none"><tspan dx="0 " x="0" y="9">Diagrams</tspan></text><text transform="matrix(1 0 0 1 94 46)" fill="#000096" stroke="none"><tspan dx="0 " x="0" y="9">1.0</tspan></text><text transform="matrix(1 0 0 1 94 59)" fill="#000096" stroke="none"><tspan dx="0 " x="0" y="9">Rob Knapen</tspan></text></g></g></g></g></svg>