<?xml version="1.0" encoding="utf-8"?><svg version="1.1" preserveAspectRatio="xMidYMid" xml:space="preserve" width="882.2498400000001pt" height="918.028462pt" viewBox="19.32876 -1.5010620000000001 882.2498400000001 918.028462" xmlns="http://www.w3.org/2000/svg" xmlns:xlink="http://www.w3.org/1999/xlink"><g transform="matrix(1 0 0 -1 0 918)"><g stroke="#000000" fill="none" fill-rule="evenodd" stroke-width="1" stroke-linecap="round" stroke-linejoin="round" stroke-miterlimit="3" letter-spacing="normal" font-weight="normal" font-style="normal" baseline-shift="0"><g transform="matrix(0.75 0 0 0.75 0 918.700012)"><g transform="matrix(0.958904 0 0 -0.95986 0 0)" font-family="ArialUnicode" font-size="10"><path stroke="#FF0000" stroke-width="2" d="M517 630V974m0 0h648m0 0V630m0 0H517" /><text transform="matrix(1 0 0 1 604 634)" fill="#000000" stroke="none"><tspan dx="0 " x="0" y="9">link met de bodemprofielen (ander registratieobject, wordt ingevuld als de modellen gekoppeld zijn).</tspan></text><path fill="#DFDFDF" stroke="none" d="M157 485C157 480 157 480 162 480H427C432 480 432 480 432 485V593C432 598 432 598 427 598H162C157 598 157 598 157 593V485" /><path fill="#FFFFFF" stroke="none" d="M154 482C154 477 154 477 159 477H424C429 477 429 477 429 482V590C429 595 429 595 424 595H159C154 595 154 595 154 590V482" /><path d="M154 482C154 477 154 477 159 477H424C429 477 429 477 429 482V590C429 595 429 595 424 595H159C154 595 154 595 154 590V482m0 0C154 477 154 477 159 477H424C429 477 429 477 429 482V590C429 595 429 595 424 595H159C154 595 154 595 154 590V482" /><rect x="154" y="477" width="275" height="118" /><text transform="matrix(1 0 0 1 260 483)" fill="#000000" stroke="none"><tspan dx="0 " x="0" y="9">«Objecttype»</tspan></text><text transform="matrix(1 0 0 1 193 496)" fill="#000000" font-weight="bold" stroke="none"><tspan dx="0 " x="0" y="9">BodemEnGrondwatertrappenKaartvlak</tspan></text><path d="M154 513H429" /><text transform="matrix(1 0 0 1 167 521)" fill="#000000" stroke="none"><tspan dx="0 " x="0" y="9">«Attribuutsoort»</tspan></text><text transform="matrix(1 0 0 1 159 534)" fill="#3C3C3C" stroke="none"><tspan dx="0 " x="0" y="9">+ </tspan></text><text transform="matrix(1 0 0 1 176 534)" fill="#3C3C3C" stroke="none"><tspan dx="0 " x="0" y="9">id: Identifier {id}</tspan></text><text transform="matrix(1 0 0 1 159 547)" fill="#3C3C3C" stroke="none"><tspan dx="0 " x="0" y="9">+ </tspan></text><text transform="matrix(1 0 0 1 176 547)" fill="#3C3C3C" stroke="none"><tspan dx="0 " x="0" y="9">geometry: GM_Polygon</tspan></text><text transform="matrix(1 0 0 1 159 560)" fill="#3C3C3C" stroke="none"><tspan dx="0 " x="0" y="9">+ </tspan></text><text transform="matrix(1 0 0 1 176 560)" fill="#3C3C3C" stroke="none"><tspan dx="0 " x="0" y="9">helling: BodemHellingWaarde</tspan></text><path fill="#DFDFDF" stroke="none" d="M965 325C965 320 965 320 970 320h261C1236 320 1236 320 1236 325V533C1236 538 1236 538 1231 538H970C965 538 965 538 965 533V325" /><path fill="#FFFE99" stroke="none" d="M962 322C962 317 962 317 967 317h261C1233 317 1233 317 1233 322V530C1233 535 1233 535 1228 535H967C962 535 962 535 962 530V322" /><path d="M962 322C962 317 962 317 967 317h261C1233 317 1233 317 1233 322V530C1233 535 1233 535 1228 535H967C962 535 962 535 962 530V322m0 0C962 317 962 317 967 317h261C1233 317 1233 317 1233 322V530C1233 535 1233 535 1228 535H967C962 535 962 535 962 530V322" /><rect x="962" y="317" width="271" height="218" /><text transform="matrix(1 0 0 1 1045 323)" fill="#000000" stroke="none"><tspan dx="0 " x="0" y="9">«Gegevensgroeptype»</tspan></text><text transform="matrix(1 0 0 1 992 336)" fill="#000000" font-weight="bold" stroke="none"><tspan dx="0 " x="0" y="9">AttributeGroups::Registratiegeschiedenis</tspan></text><path d="M962 353h271" /><text transform="matrix(1 0 0 1 975 361)" fill="#000000" stroke="none"><tspan dx="0 " x="0" y="9">«Attribuutsoort»</tspan></text><text transform="matrix(1 0 0 1 967 374)" fill="#3C3C3C" stroke="none"><tspan dx="0 " x="0" y="9">+ </tspan></text><text transform="matrix(1 0 0 1 984 374)" fill="#3C3C3C" stroke="none"><tspan dx="0 " x="0" y="9">tijdstip registratie object: DateTime</tspan></text><text transform="matrix(1 0 0 1 967 387)" fill="#3C3C3C" stroke="none"><tspan dx="0 " x="0" y="9">+ </tspan></text><text transform="matrix(1 0 0 1 984 387)" fill="#3C3C3C" stroke="none"><tspan dx="0 " x="0" y="9">registratiestatus: Registratiestatus</tspan></text><text transform="matrix(1 0 0 1 967 400)" fill="#3C3C3C" stroke="none"><tspan dx="0 " x="0" y="9">+ </tspan></text><text transform="matrix(1 0 0 1 984 400)" fill="#3C3C3C" stroke="none"><tspan dx="0 " x="0" y="9">tijdstip laatste aanvulling: DateTime [0..1]</tspan></text><text transform="matrix(1 0 0 1 967 413)" fill="#3C3C3C" stroke="none"><tspan dx="0 " x="0" y="9">+ </tspan></text><text transform="matrix(1 0 0 1 984 413)" fill="#3C3C3C" stroke="none"><tspan dx="0 " x="0" y="9">tijdstip voltooiing registratie: DateTime [0..1]</tspan></text><text transform="matrix(1 0 0 1 967 426)" fill="#3C3C3C" stroke="none"><tspan dx="0 " x="0" y="9">+ </tspan></text><text transform="matrix(1 0 0 1 984 426)" fill="#3C3C3C" stroke="none"><tspan dx="0 " x="0" y="9">gecorrigeerd: Boolean</tspan></text><text transform="matrix(1 0 0 1 967 439)" fill="#3C3C3C" stroke="none"><tspan dx="0 " x="0" y="9">+ </tspan></text><text transform="matrix(1 0 0 1 984 439)" fill="#3C3C3C" stroke="none"><tspan dx="0 " x="0" y="9">tijdstip laatste correctie: DateTime [0..1]</tspan></text><text transform="matrix(1 0 0 1 967 452)" fill="#3C3C3C" stroke="none"><tspan dx="0 " x="0" y="9">+ </tspan></text><text transform="matrix(1 0 0 1 984 452)" fill="#3C3C3C" stroke="none"><tspan dx="0 " x="0" y="9">in onderzoek: Boolean</tspan></text><text transform="matrix(1 0 0 1 967 465)" fill="#3C3C3C" stroke="none"><tspan dx="0 " x="0" y="9">+ </tspan></text><text transform="matrix(1 0 0 1 984 465)" fill="#3C3C3C" stroke="none"><tspan dx="0 " x="0" y="9">in onderzoek sinds: DateTime [0..1]</tspan></text><text transform="matrix(1 0 0 1 967 478)" fill="#3C3C3C" stroke="none"><tspan dx="0 " x="0" y="9">+ </tspan></text><text transform="matrix(1 0 0 1 984 478)" fill="#3C3C3C" stroke="none"><tspan dx="0 " x="0" y="9">uit registratie genomen: Boolean</tspan></text><text transform="matrix(1 0 0 1 967 491)" fill="#3C3C3C" stroke="none"><tspan dx="0 " x="0" y="9">+ </tspan></text><text transform="matrix(1 0 0 1 984 491)" fill="#3C3C3C" stroke="none"><tspan dx="0 " x="0" y="9">tijdstip uit registratie genomen: DateTime [0..1]</tspan></text><text transform="matrix(1 0 0 1 967 504)" fill="#3C3C3C" stroke="none"><tspan dx="0 " x="0" y="9">+ </tspan></text><text transform="matrix(1 0 0 1 984 504)" fill="#3C3C3C" stroke="none"><tspan dx="0 " x="0" y="9">weer in registratie genomen: Boolean</tspan></text><text transform="matrix(1 0 0 1 967 517)" fill="#3C3C3C" stroke="none"><tspan dx="0 " x="0" y="9">+ </tspan></text><text transform="matrix(1 0 0 1 984 517)" fill="#3C3C3C" stroke="none"><tspan dx="0 " x="0" y="9">tijdstip weer in registratie genomen: DateTime [0..1]</tspan></text><path fill="#DFDFDF" stroke="none" d="M179 257C179 252 179 252 184 252H405C410 252 410 252 410 257v91C410 353 410 353 405 353H184C179 353 179 353 179 348V257" /><path fill="#FFFFFF" stroke="none" d="M176 254C176 249 176 249 181 249H402C407 249 407 249 407 254v91C407 350 407 350 402 350H181C176 350 176 350 176 345V254" /><path d="M176 254C176 249 176 249 181 249H402C407 249 407 249 407 254v91C407 350 407 350 402 350H181C176 350 176 350 176 345V254m0 0C176 249 176 249 181 249H402C407 249 407 249 407 254v91C407 350 407 350 402 350H181C176 350 176 350 176 345V254" /><rect x="176" y="249" width="231" height="101" /><text transform="matrix(1 0 0 1 260 255)" fill="#000000" stroke="none"><tspan dx="0 " x="0" y="9">«Objecttype»</tspan></text><text transform="matrix(1 0 0 1 204 268)" fill="#000000" font-weight="bold" stroke="none"><tspan dx="0 " x="0" y="9">BodemEnGrondwatertrappenKaart</tspan></text><path d="M176 285H407" /><text transform="matrix(1 0 0 1 189 293)" fill="#000000" stroke="none"><tspan dx="0 " x="0" y="9">«Attribuutsoort»</tspan></text><text transform="matrix(1 0 0 1 181 306)" fill="#3C3C3C" stroke="none"><tspan dx="0 " x="0" y="9">+ </tspan></text><text transform="matrix(1 0 0 1 198 306)" fill="#3C3C3C" stroke="none"><tspan dx="0 " x="0" y="9">id: Identifier {id}</tspan></text><text transform="matrix(1 0 0 1 181 319)" fill="#3C3C3C" stroke="none"><tspan dx="0 " x="0" y="9">+ </tspan></text><text transform="matrix(1 0 0 1 198 319)" fill="#3C3C3C" stroke="none"><tspan dx="0 " x="0" y="9">extent: EX_Extent</tspan></text><text transform="matrix(1 0 0 1 181 332)" fill="#3C3C3C" stroke="none"><tspan dx="0 " x="0" y="9">+ </tspan></text><text transform="matrix(1 0 0 1 198 332)" fill="#3C3C3C" stroke="none"><tspan dx="0 " x="0" y="9">schaal: Integer</tspan></text><path fill="#DFDFDF" stroke="none" d="M541 871C541 866 541 866 546 866H723C728 866 728 866 728 871v59C728 935 728 935 723 935H546C541 935 541 935 541 930V871" /><path fill="#FFFFFF" stroke="none" d="M538 868C538 863 538 863 543 863H720C725 863 725 863 725 868v59C725 932 725 932 720 932H543C538 932 538 932 538 927V868" /><path d="M538 868C538 863 538 863 543 863H720C725 863 725 863 725 868v59C725 932 725 932 720 932H543C538 932 538 932 538 927V868m0 0C538 863 538 863 543 863H720C725 863 725 863 725 868v59C725 932 725 932 720 932H543C538 932 538 932 538 927V868" /><rect x="538" y="863" width="187" height="69" /><text transform="matrix(1 0 0 1 600 869)" fill="#000000" stroke="none"><tspan dx="0 " x="0" y="9">«Objecttype»</tspan></text><text transform="matrix(1 0 0 1 577 882)" fill="#000000" font-weight="bold" stroke="none"><tspan dx="0 " x="0" y="9">AfgeleidBodemprofiel</tspan></text><path fill="#DFDFDF" stroke="none" d="M583 463C583 458 583 458 588 458H912C917 458 917 458 917 463v86C917 554 917 554 912 554H588C583 554 583 554 583 549V463" /><path fill="#FFFFFF" stroke="none" d="M580 460C580 455 580 455 585 455H909C914 455 914 455 914 460v86C914 551 914 551 909 551H585C580 551 580 551 580 546V460" /><path d="M580 460C580 455 580 455 585 455H909C914 455 914 455 914 460v86C914 551 914 551 909 551H585C580 551 580 551 580 546V460m0 0C580 455 580 455 585 455H909C914 455 914 455 914 460v86C914 551 914 551 909 551H585C580 551 580 551 580 546V460" /><rect x="580" y="455" width="334" height="96" /><text transform="matrix(1 0 0 1 716 461)" fill="#000000" stroke="none"><tspan dx="0 " x="0" y="9">«Objecttype»</tspan></text><text transform="matrix(1 0 0 1 626 474)" fill="#000000" font-weight="bold" stroke="none"><tspan dx="0 " x="0" y="9">BodemEnGrondwatertrappenKaartvlakCollectie</tspan></text><path d="M580 491H914" /><text transform="matrix(1 0 0 1 593 499)" fill="#000000" stroke="none"><tspan dx="0 " x="0" y="9">«Attribuutsoort»</tspan></text><text transform="matrix(1 0 0 1 585 512)" fill="#3C3C3C" stroke="none"><tspan dx="0 " x="0" y="9">+ </tspan></text><text transform="matrix(1 0 0 1 602 512)" fill="#3C3C3C" stroke="none"><tspan dx="0 " x="0" y="9">id: Identifier {id}</tspan></text><text transform="matrix(1 0 0 1 585 525)" fill="#3C3C3C" stroke="none"><tspan dx="0 " x="0" y="9">+ </tspan></text><text transform="matrix(1 0 0 1 602 525)" fill="#3C3C3C" stroke="none"><tspan dx="0 " x="0" y="9">naam: CharacterString</tspan></text><text transform="matrix(1 0 0 1 585 538)" fill="#3C3C3C" stroke="none"><tspan dx="0 " x="0" y="9">+ </tspan></text><text transform="matrix(1 0 0 1 602 538)" fill="#3C3C3C" stroke="none"><tspan dx="0 " x="0" y="9">type: BodemEnGrondwatertrappenKaartvlakCollectieTypeWaarde</tspan></text><path fill="#DFDFDF" stroke="none" d="M123 701C123 696 123 696 128 696H461C466 696 466 696 466 701V826C466 831 466 831 461 831H128C123 831 123 831 123 826V701" /><path fill="#FFFFFF" stroke="none" d="M120 698C120 693 120 693 125 693H458C463 693 463 693 463 698V823C463 828 463 828 458 828H125C120 828 120 828 120 823V698" /><path d="M120 698C120 693 120 693 125 693H458C463 693 463 693 463 698V823C463 828 463 828 458 828H125C120 828 120 828 120 823V698m0 0C120 693 120 693 125 693H458C463 693 463 693 463 698V823C463 828 463 828 458 828H125C120 828 120 828 120 823V698" /><rect x="120" y="693" width="343" height="135" /><text transform="matrix(1 0 0 1 260 699)" fill="#000000" stroke="none"><tspan dx="0 " x="0" y="9">«Objecttype»</tspan></text><text transform="matrix(1 0 0 1 257 712)" fill="#000000" font-weight="bold" stroke="none"><tspan dx="0 " x="0" y="9">BodemObject</tspan></text><path d="M120 729H463" /><text transform="matrix(1 0 0 1 133 737)" fill="#000000" stroke="none"><tspan dx="0 " x="0" y="9">«Attribuutsoort»</tspan></text><text transform="matrix(1 0 0 1 125 750)" fill="#3C3C3C" stroke="none"><tspan dx="0 " x="0" y="9">+ </tspan></text><text transform="matrix(1 0 0 1 142 750)" fill="#3C3C3C" stroke="none"><tspan dx="0 " x="0" y="9">id: Identifier {id}</tspan></text><text transform="matrix(1 0 0 1 125 763)" fill="#3C3C3C" stroke="none"><tspan dx="0 " x="0" y="9">+ </tspan></text><text transform="matrix(1 0 0 1 142 763)" fill="#3C3C3C" stroke="none"><tspan dx="0 " x="0" y="9">geometry: GM_MultiSurface</tspan></text><text transform="matrix(1 0 0 1 133 780)" fill="#000000" stroke="none"><tspan dx="0 " x="0" y="9">«Gegevensgroep»</tspan></text><text transform="matrix(1 0 0 1 125 793)" fill="#3C3C3C" stroke="none"><tspan dx="0 " x="0" y="9">+ </tspan></text><text transform="matrix(1 0 0 1 142 793)" fill="#3C3C3C" stroke="none"><tspan dx="0 " x="0" y="9">bodemkenmerken: BodemEnGrondwatertrappenKaarteenheid [1..3]</tspan></text><path fill="#DFDFDF" stroke="none" d="M859 864C859 859 859 859 864 859h278C1147 859 1147 859 1147 864v74C1147 943 1147 943 1142 943H864C859 943 859 943 859 938V864" /><path fill="#FFFFFF" stroke="none" d="M856 861C856 856 856 856 861 856h278C1144 856 1144 856 1144 861v74C1144 940 1144 940 1139 940H861C856 940 856 940 856 935V861" /><path d="M856 861C856 856 856 856 861 856h278C1144 856 1144 856 1144 861v74C1144 940 1144 940 1139 940H861C856 940 856 940 856 935V861m0 0C856 856 856 856 861 856h278C1144 856 1144 856 1144 861v74C1144 940 1144 940 1139 940H861C856 940 856 940 856 935V861" /><rect x="856" y="856" width="288" height="84" /><text transform="matrix(1 0 0 1 969 862)" fill="#000000" stroke="none"><tspan dx="0 " x="0" y="9">«Objecttype»</tspan></text><text transform="matrix(1 0 0 1 930 875)" fill="#000000" font-weight="bold" stroke="none"><tspan dx="0 " x="0" y="9">WaargenomenBodemprofiel</tspan></text><path d="M856 892h288" /><text transform="matrix(1 0 0 1 869 900)" fill="#000000" stroke="none"><tspan dx="0 " x="0" y="9">«Attribuutsoort»</tspan></text><text transform="matrix(1 0 0 1 861 913)" fill="#3C3C3C" stroke="none"><tspan dx="0 " x="0" y="9">+ </tspan></text><text transform="matrix(1 0 0 1 878 913)" fill="#3C3C3C" stroke="none"><tspan dx="0 " x="0" y="9">BRO_RO_Booronderzoek: Registratieobjectcode</tspan></text><path fill="#DFDFDF" stroke="none" d="M666 662C666 657 666 657 671 657H909C914 657 914 657 914 662V798C914 803 914 803 909 803H671C666 803 666 803 666 798V662" /><path fill="#FFFFFF" stroke="none" d="M663 659C663 654 663 654 668 654H906C911 654 911 654 911 659V795C911 800 911 800 906 800H668C663 800 663 800 663 795V659" /><path d="M663 659C663 654 663 654 668 654H906C911 654 911 654 911 659V795C911 800 911 800 906 800H668C663 800 663 800 663 795V659m0 0C663 654 663 654 668 654H906C911 654 911 654 911 659V795C911 800 911 800 906 800H668C663 800 663 800 663 795V659" /><rect x="663" y="654" width="248" height="146" /><text transform="matrix(1 0 0 1 756 660)" fill="#000000" stroke="none"><tspan dx="0 " x="0" y="9">«Objecttype»</tspan></text><text transform="matrix(1 0 0 1 753 673)" fill="#000000" font-weight="bold" stroke="none"><tspan dx="0 " x="0" y="9">Bodemprofiel</tspan></text><path d="M663 690H911" /><text transform="matrix(1 0 0 1 676 698)" fill="#000000" stroke="none"><tspan dx="0 " x="0" y="9">«Attribuutsoort»</tspan></text><text transform="matrix(1 0 0 1 668 711)" fill="#3C3C3C" stroke="none"><tspan dx="0 " x="0" y="9">+ </tspan></text><text transform="matrix(1 0 0 1 685 711)" fill="#3C3C3C" stroke="none"><tspan dx="0 " x="0" y="9">bodemprofiel id: Identifier</tspan></text><text transform="matrix(1 0 0 1 668 724)" fill="#3C3C3C" stroke="none"><tspan dx="0 " x="0" y="9">+ </tspan></text><text transform="matrix(1 0 0 1 685 724)" fill="#3C3C3C" stroke="none"><tspan dx="0 " x="0" y="9">WRBSoilName: WRBSoilNameType</tspan></text><text transform="matrix(1 0 0 1 668 737)" fill="#3C3C3C" stroke="none"><tspan dx="0 " x="0" y="9">+ </tspan></text><text transform="matrix(1 0 0 1 685 737)" fill="#3C3C3C" stroke="none"><tspan dx="0 " x="0" y="9">otherSoilName: OtherSoilNameType</tspan></text><text transform="matrix(1 0 0 1 668 750)" fill="#3C3C3C" stroke="none"><tspan dx="0 " x="0" y="9">+ </tspan></text><text transform="matrix(1 0 0 1 685 750)" fill="#3C3C3C" stroke="none"><tspan dx="0 " x="0" y="9">validFrom: Date</tspan></text><text transform="matrix(1 0 0 1 668 763)" fill="#3C3C3C" stroke="none"><tspan dx="0 " x="0" y="9">+ </tspan></text><text transform="matrix(1 0 0 1 685 763)" fill="#3C3C3C" stroke="none"><tspan dx="0 " x="0" y="9">validTo: DateTime</tspan></text><path fill="#DFDFDF" stroke="none" d="M194 97C194 92 194 92 199 92H390C395 92 395 92 395 97v52C395 154 395 154 390 154H199C194 154 194 154 194 149V97" /><path stroke="none" fill="#FFFFFF" d="M191 94C191 89 191 89 196 89H387C392 89 392 89 392 94v52C392 151 392 151 387 151H196C191 151 191 151 191 146V94" /><path stroke="#C0C0C0" d="M191 94C191 89 191 89 196 89H387C392 89 392 89 392 94v52C392 151 392 151 387 151H196C191 151 191 151 191 146V94m0 0C191 89 191 89 196 89H387C392 89 392 89 392 94v52C392 151 392 151 387 151H196C191 151 191 151 191 146V94" /><rect stroke="#C0C0C0" x="191" y="89" width="201" height="62" /><text transform="matrix(1 0 0 1 257 95)" fill="#000000" stroke="none"><tspan dx="0 " x="0" y="9">«featureType»</tspan></text><text transform="matrix(1 0 0 1 209 108)" fill="#000000" font-weight="bold" font-style="italic" stroke="none"><tspan dx="0 " x="0" y="9">FeatureTypes::RegistratieObject</tspan></text><path fill="#DFDFDF" stroke="none" d="M583 572C583 567 583 567 588 567H960C965 567 965 567 965 572v36C965 613 965 613 960 613H588C583 613 583 613 583 608V572" /><path stroke="none" fill="#FFFFFF" d="M580 569C580 564 580 564 585 564H957C962 564 962 564 962 569v36C962 610 962 610 957 610H585C580 610 580 610 580 605V569" /><path stroke="#C0C0C0" d="M580 569C580 564 580 564 585 564H957C962 564 962 564 962 569v36C962 610 962 610 957 610H585C580 610 580 610 580 605V569m0 0C580 564 580 564 585 564H957C962 564 962 564 962 569v36C962 610 962 610 957 610H585C580 610 580 610 580 605V569" /><rect stroke="#C0C0C0" x="580" y="564" width="382" height="46" /><text transform="matrix(1 0 0 1 715 570)" fill="#000000" stroke="none"><tspan dx="0 " x="0" y="9">«enumeration,Codelist»</tspan></text><text transform="matrix(1 0 0 1 619 583)" fill="#000000" font-weight="bold" stroke="none"><tspan dx="0 " x="0" y="9">BodemEnGrondwatertrappenKaartvlakCollectieTypeWaarde</tspan></text><path fill="#DFDFDF" stroke="none" d="M41 1119C41 1114 41 1114 46 1114H235C240 1114 240 1114 240 1119v44C240 1168 240 1168 235 1168H46C41 1168 41 1168 41 1163v-44" /><path stroke="none" fill="#CCFFCC" d="M38 1116C38 1111 38 1111 43 1111H232C237 1111 237 1111 237 1116v44C237 1165 237 1165 232 1165H43C38 1165 38 1165 38 1160v-44" /><path stroke="#C0C0C0" d="M38 1116C38 1111 38 1111 43 1111H232C237 1111 237 1111 237 1116v44C237 1165 237 1165 232 1165H43C38 1165 38 1165 38 1160v-44m0 0C38 1111 38 1111 43 1111H232C237 1111 237 1111 237 1116v44C237 1165 237 1165 232 1165H43C38 1165 38 1165 38 1160v-44" /><rect stroke="#C0C0C0" x="38" y="1111" width="199" height="54" /><text transform="matrix(1 0 0 1 81 1117)" fill="#000000" stroke="none"><tspan dx="0 " x="0" y="9">«enumeration,Codelist»</tspan></text><text transform="matrix(1 0 0 1 83 1130)" fill="#000000" font-weight="bold" stroke="none"><tspan dx="0 " x="0" y="9">BodemHellingWaarde</tspan></text><path fill="#DFDFDF" stroke="none" d="M279 1119C279 1114 279 1114 284 1114H494C499 1114 499 1114 499 1119v41C499 1165 499 1165 494 1165H284C279 1165 279 1165 279 1160v-41" /><path stroke="none" fill="#D7FCCE" d="M276 1116C276 1111 276 1111 281 1111H491C496 1111 496 1111 496 1116v41C496 1162 496 1162 491 1162H281C276 1162 276 1162 276 1157v-41" /><path stroke="#C0C0C0" d="M276 1116C276 1111 276 1111 281 1111H491C496 1111 496 1111 496 1116v41C496 1162 496 1162 491 1162H281C276 1162 276 1162 276 1157v-41m0 0C276 1111 276 1111 281 1111H491C496 1111 496 1111 496 1116v41C496 1162 496 1162 491 1162H281C276 1162 276 1162 276 1157v-41" /><rect stroke="#C0C0C0" x="276" y="1111" width="220" height="51" /><text transform="matrix(1 0 0 1 330 1117)" fill="#000000" stroke="none"><tspan dx="0 " x="0" y="9">«enumeration,Codelist»</tspan></text><text transform="matrix(1 0 0 1 317 1130)" fill="#000000" font-weight="bold" stroke="none"><tspan dx="0 " x="0" y="9">BodemHoofdklasseWaarde</tspan></text><path fill="#DFDFDF" stroke="none" d="M484 1204C484 1199 484 1199 489 1199H749C754 1199 754 1199 754 1204v31C754 1240 754 1240 749 1240H489C484 1240 484 1240 484 1235v-31" /><path stroke="none" fill="#D7FCCE" d="M481 1201C481 1196 481 1196 486 1196H746C751 1196 751 1196 751 1201v31C751 1237 751 1237 746 1237H486C481 1237 481 1237 481 1232v-31" /><path stroke="#C0C0C0" d="M481 1201C481 1196 481 1196 486 1196H746C751 1196 751 1196 751 1201v31C751 1237 751 1237 746 1237H486C481 1237 481 1237 481 1232v-31m0 0C481 1196 481 1196 486 1196H746C751 1196 751 1196 751 1201v31C751 1237 751 1237 746 1237H486C481 1237 481 1237 481 1232v-31" /><rect stroke="#C0C0C0" x="481" y="1196" width="270" height="41" /><text transform="matrix(1 0 0 1 560 1202)" fill="#000000" stroke="none"><tspan dx="0 " x="0" y="9">«enumeration,Codelist»</tspan></text><text transform="matrix(1 0 0 1 522 1215)" fill="#000000" font-weight="bold" stroke="none"><tspan dx="0 " x="0" y="9">BodemKenmerkenBovenlaagWaarde</tspan></text><path fill="#DFDFDF" stroke="none" d="M41 1204C41 1199 41 1199 46 1199H434C439 1199 439 1199 439 1204v32C439 1241 439 1241 434 1241H46C41 1241 41 1241 41 1236v-32" /><path stroke="none" fill="#D7FCCE" d="M38 1201C38 1196 38 1196 43 1196H431C436 1196 436 1196 436 1201v32C436 1238 436 1238 431 1238H43C38 1238 38 1238 38 1233v-32" /><path stroke="#C0C0C0" d="M38 1201C38 1196 38 1196 43 1196H431C436 1196 436 1196 436 1201v32C436 1238 436 1238 431 1238H43C38 1238 38 1238 38 1233v-32m0 0C38 1196 38 1196 43 1196H431C436 1196 436 1196 436 1201v32C436 1238 436 1238 431 1238H43C38 1238 38 1238 38 1233v-32" /><rect stroke="#C0C0C0" x="38" y="1196" width="398" height="42" /><text transform="matrix(1 0 0 1 181 1202)" fill="#000000" stroke="none"><tspan dx="0 " x="0" y="9">«enumeration,Codelist»</tspan></text><text transform="matrix(1 0 0 1 144 1215)" fill="#000000" font-weight="bold" stroke="none"><tspan dx="0 " x="0" y="9">BodemKenmerkenOnderlaagWaarde</tspan></text><path fill="#DFDFDF" stroke="none" d="M531 1119C531 1114 531 1114 536 1114H930C935 1114 935 1114 935 1119v24C935 1148 935 1148 930 1148H536C531 1148 531 1148 531 1143v-24" /><path stroke="none" fill="#D7FCCE" d="M528 1116C528 1111 528 1111 533 1111H927C932 1111 932 1111 932 1116v24C932 1145 932 1145 927 1145H533C528 1145 528 1145 528 1140v-24" /><path stroke="#C0C0C0" d="M528 1116C528 1111 528 1111 533 1111H927C932 1111 932 1111 932 1116v24C932 1145 932 1145 927 1145H533C528 1145 528 1145 528 1140v-24m0 0C528 1111 528 1111 533 1111H927C932 1111 932 1111 932 1116v24C932 1145 932 1145 927 1145H533C528 1145 528 1145 528 1140v-24" /><rect stroke="#C0C0C0" x="528" y="1111" width="404" height="34" /><text transform="matrix(1 0 0 1 674 1117)" fill="#000000" stroke="none"><tspan dx="0 " x="0" y="9">«enumeration,Codelist»</tspan></text><text transform="matrix(1 0 0 1 650 1130)" fill="#000000" font-weight="bold" stroke="none"><tspan dx="0 " x="0" y="9">BodemLegendaEenheidWaarde</tspan></text><path fill="#DFDFDF" stroke="none" d="M781 1204C781 1199 781 1199 786 1199H930C935 1199 935 1199 935 1204v54C935 1263 935 1263 930 1263H786C781 1263 781 1263 781 1258v-54" /><path stroke="none" fill="#D7FCCE" d="M778 1201C778 1196 778 1196 783 1196H927C932 1196 932 1196 932 1201v54C932 1260 932 1260 927 1260H783C778 1260 778 1260 778 1255v-54" /><path stroke="#C0C0C0" d="M778 1201C778 1196 778 1196 783 1196H927C932 1196 932 1196 932 1201v54C932 1260 932 1260 927 1260H783C778 1260 778 1260 778 1255v-54m0 0C778 1196 778 1196 783 1196H927C932 1196 932 1196 932 1201v54C932 1260 932 1260 927 1260H783C778 1260 778 1260 778 1255v-54" /><rect stroke="#C0C0C0" x="778" y="1196" width="154" height="64" /><text transform="matrix(1 0 0 1 799 1202)" fill="#000000" stroke="none"><tspan dx="0 " x="0" y="9">«enumeration,Codelist»</tspan></text><text transform="matrix(1 0 0 1 796 1215)" fill="#000000" font-weight="bold" stroke="none"><tspan dx="0 " x="0" y="9">GrondwatertrapWaarde</tspan></text><path fill="#DFDFDF" stroke="none" d="M123 943C123 938 123 938 128 938H456C461 938 461 938 461 943v129C461 1077 461 1077 456 1077H128C123 1077 123 1077 123 1072V943" /><path fill="#CCFFFF" stroke="none" d="M120 940C120 935 120 935 125 935H453C458 935 458 935 458 940v129C458 1074 458 1074 453 1074H125C120 1074 120 1074 120 1069V940" /><path d="M120 940C120 935 120 935 125 935H453C458 935 458 935 458 940v129C458 1074 458 1074 453 1074H125C120 1074 120 1074 120 1069V940m0 0C120 935 120 935 125 935H453C458 935 458 935 458 940v129C458 1074 458 1074 453 1074H125C120 1074 120 1074 120 1069V940" /><rect x="120" y="935" width="338" height="139" /><text transform="matrix(1 0 0 1 236 941)" fill="#000000" stroke="none"><tspan dx="0 " x="0" y="9">«Gegevensgroeptype»</tspan></text><text transform="matrix(1 0 0 1 181 954)" fill="#000000" font-weight="bold" stroke="none"><tspan dx="0 " x="0" y="9">BodemEnGrondwatertrappenKaarteenheid</tspan></text><path d="M120 971H458" /><text transform="matrix(1 0 0 1 133 979)" fill="#000000" stroke="none"><tspan dx="0 " x="0" y="9">«Attribuutsoort»</tspan></text><text transform="matrix(1 0 0 1 125 992)" fill="#3C3C3C" stroke="none"><tspan dx="0 " x="0" y="9">+ </tspan></text><text transform="matrix(1 0 0 1 142 992)" fill="#3C3C3C" stroke="none"><tspan dx="0 " x="0" y="9">bodemHoofdklasse: BodemHoofdklasseWaarde</tspan></text><text transform="matrix(1 0 0 1 125 1005)" fill="#3C3C3C" stroke="none"><tspan dx="0 " x="0" y="9">+ </tspan></text><text transform="matrix(1 0 0 1 142 1005)" fill="#3C3C3C" stroke="none"><tspan dx="0 " x="0" y="9">bodemlegendaEenheid: BodemLegendaEenheidWaarde</tspan></text><text transform="matrix(1 0 0 1 125 1018)" fill="#3C3C3C" stroke="none"><tspan dx="0 " x="0" y="9">+ </tspan></text><text transform="matrix(1 0 0 1 142 1018)" fill="#3C3C3C" stroke="none"><tspan dx="0 " x="0" y="9">bodemkenmerkenBovenlaag: BodemKenmerkenBovenlaagWaarde</tspan></text><text transform="matrix(1 0 0 1 125 1031)" fill="#3C3C3C" stroke="none"><tspan dx="0 " x="0" y="9">+ </tspan></text><text transform="matrix(1 0 0 1 142 1031)" fill="#3C3C3C" stroke="none"><tspan dx="0 " x="0" y="9">bodemkenmerkenOnderlaag: BodemKenmerkenOnderlaagWaarde</tspan></text><text transform="matrix(1 0 0 1 125 1044)" fill="#3C3C3C" stroke="none"><tspan dx="0 " x="0" y="9">+ </tspan></text><text transform="matrix(1 0 0 1 142 1044)" fill="#3C3C3C" stroke="none"><tspan dx="0 " x="0" y="9">grondwatertrap: GrondwatertrapWaarde</tspan></text><text transform="matrix(1 0 0 1 125 1057)" fill="#3C3C3C" stroke="none"><tspan dx="0 " x="0" y="9">+ </tspan></text><text transform="matrix(1 0 0 1 142 1057)" fill="#3C3C3C" stroke="none"><tspan dx="0 " x="0" y="9">bodemHelling: BodemHellingWaarde</tspan></text><path fill="#DFDFDF" stroke="none" d="M579 18C579 13 579 13 584 13H832C837 13 837 13 837 18V235C837 240 837 240 832 240H584C579 240 579 240 579 235V18" /><path stroke="none" fill="#FFFFFF" d="M576 15C576 10 576 10 581 10H829C834 10 834 10 834 15V232C834 237 834 237 829 237H581C576 237 576 237 576 232V15" /><path stroke="#C0C0C0" d="M576 15C576 10 576 10 581 10H829C834 10 834 10 834 15V232C834 237 834 237 829 237H581C576 237 576 237 576 232V15m0 0C576 10 576 10 581 10H829C834 10 834 10 834 15V232C834 237 834 237 829 237H581C576 237 576 237 576 232V15" /><rect stroke="#C0C0C0" x="576" y="10" width="258" height="227" /><text transform="matrix(1 0 0 1 679 16)" fill="#000000" stroke="none"><tspan dx="0 " x="0" y="9">«datatype»</tspan></text><text transform="matrix(1 0 0 1 596 29)" fill="#000000" font-weight="bold" stroke="none"><tspan dx="0 " x="0" y="9">Citation and responsible party information::</tspan></text><text transform="matrix(1 0 0 1 678 41)" fill="#000000" font-weight="bold" stroke="none"><tspan dx="0 " x="0" y="9">CI_Citation</tspan></text><path stroke="#C0C0C0" d="M576 58H834" /><text transform="matrix(1 0 0 1 581 62)" fill="#3C3C3C" stroke="none"><tspan dx="0 " x="0" y="9">+ </tspan></text><text transform="matrix(1 0 0 1 598 62)" fill="#3C3C3C" stroke="none"><tspan dx="0 " x="0" y="9">title: CharacterString</tspan></text><text transform="matrix(1 0 0 1 581 75)" fill="#3C3C3C" stroke="none"><tspan dx="0 " x="0" y="9">+ </tspan></text><text transform="matrix(1 0 0 1 598 75)" fill="#3C3C3C" stroke="none"><tspan dx="0 " x="0" y="9">alternateTitle: CharacterString [0..*]</tspan></text><text transform="matrix(1 0 0 1 581 88)" fill="#3C3C3C" stroke="none"><tspan dx="0 " x="0" y="9">+ </tspan></text><text transform="matrix(1 0 0 1 598 88)" fill="#3C3C3C" stroke="none"><tspan dx="0 " x="0" y="9">date: CI_Date [1..*]</tspan></text><text transform="matrix(1 0 0 1 581 101)" fill="#3C3C3C" stroke="none"><tspan dx="0 " x="0" y="9">+ </tspan></text><text transform="matrix(1 0 0 1 598 101)" fill="#3C3C3C" stroke="none"><tspan dx="0 " x="0" y="9">edition: CharacterString [0..1]</tspan></text><text transform="matrix(1 0 0 1 581 114)" fill="#3C3C3C" stroke="none"><tspan dx="0 " x="0" y="9">+ </tspan></text><text transform="matrix(1 0 0 1 598 114)" fill="#3C3C3C" stroke="none"><tspan dx="0 " x="0" y="9">editionDate: Date [0..1]</tspan></text><text transform="matrix(1 0 0 1 581 127)" fill="#3C3C3C" stroke="none"><tspan dx="0 " x="0" y="9">+ </tspan></text><text transform="matrix(1 0 0 1 598 127)" fill="#3C3C3C" stroke="none"><tspan dx="0 " x="0" y="9">identifier: MD_Identifier [0..*]</tspan></text><text transform="matrix(1 0 0 1 581 140)" fill="#3C3C3C" stroke="none"><tspan dx="0 " x="0" y="9">+ </tspan></text><text transform="matrix(1 0 0 1 598 140)" fill="#3C3C3C" stroke="none"><tspan dx="0 " x="0" y="9">citedResponsibleParty: CI_ResponsibleParty [0..*]</tspan></text><text transform="matrix(1 0 0 1 581 153)" fill="#3C3C3C" stroke="none"><tspan dx="0 " x="0" y="9">+ </tspan></text><text transform="matrix(1 0 0 1 598 153)" fill="#3C3C3C" stroke="none"><tspan dx="0 " x="0" y="9">presentationForm: CI_PresentationFormCode [0..*]</tspan></text><text transform="matrix(1 0 0 1 581 166)" fill="#3C3C3C" stroke="none"><tspan dx="0 " x="0" y="9">+ </tspan></text><text transform="matrix(1 0 0 1 598 166)" fill="#3C3C3C" stroke="none"><tspan dx="0 " x="0" y="9">series: CI_Series [0..1]</tspan></text><text transform="matrix(1 0 0 1 581 179)" fill="#3C3C3C" stroke="none"><tspan dx="0 " x="0" y="9">+ </tspan></text><text transform="matrix(1 0 0 1 598 179)" fill="#3C3C3C" stroke="none"><tspan dx="0 " x="0" y="9">otherCitationDetails: CharacterString [0..1]</tspan></text><text transform="matrix(1 0 0 1 581 192)" fill="#3C3C3C" stroke="none"><tspan dx="0 " x="0" y="9">+ </tspan></text><text transform="matrix(1 0 0 1 598 192)" fill="#3C3C3C" stroke="none"><tspan dx="0 " x="0" y="9">collectiveTitle: CharacterString [0..1]</tspan></text><text transform="matrix(1 0 0 1 581 205)" fill="#3C3C3C" stroke="none"><tspan dx="0 " x="0" y="9">+ </tspan></text><text transform="matrix(1 0 0 1 598 205)" fill="#3C3C3C" stroke="none"><tspan dx="0 " x="0" y="9">ISBN: CharacterString [0..1]</tspan></text><text transform="matrix(1 0 0 1 581 218)" fill="#3C3C3C" stroke="none"><tspan dx="0 " x="0" y="9">+ </tspan></text><text transform="matrix(1 0 0 1 598 218)" fill="#3C3C3C" stroke="none"><tspan dx="0 " x="0" y="9">ISSN: CharacterString [0..1]</tspan></text><path fill="#DFDFDF" stroke="none" d="M861 18C861 13 861 13 866 13h208C1079 13 1079 13 1079 18V131C1079 136 1079 136 1074 136H866C861 136 861 136 861 131V18" /><path stroke="none" fill="#FFFFFF" d="M858 15C858 10 858 10 863 10h208C1076 10 1076 10 1076 15V128C1076 133 1076 133 1071 133H863C858 133 858 133 858 128V15" /><path stroke="#C0C0C0" d="M858 15C858 10 858 10 863 10h208C1076 10 1076 10 1076 15V128C1076 133 1076 133 1071 133H863C858 133 858 133 858 128V15m0 0C858 10 858 10 863 10h208C1076 10 1076 10 1076 15V128C1076 133 1076 133 1071 133H863C858 133 858 133 858 128V15" /><rect stroke="#C0C0C0" x="858" y="10" width="218" height="123" /><text transform="matrix(1 0 0 1 941 16)" fill="#000000" stroke="none"><tspan dx="0 " x="0" y="9">«datatype»</tspan></text><text transform="matrix(1 0 0 1 858 29)" fill="#000000" font-weight="bold" stroke="none"><tspan dx="0 " x="0" y="9">Citation and responsible party information::</tspan></text><text transform="matrix(1 0 0 1 914 41)" fill="#000000" font-weight="bold" stroke="none"><tspan dx="0 " x="0" y="9">CI_ResponsibleParty</tspan></text><path stroke="#C0C0C0" d="M858 58h218" /><text transform="matrix(1 0 0 1 863 62)" fill="#3C3C3C" stroke="none"><tspan dx="0 " x="0" y="9">+ </tspan></text><text transform="matrix(1 0 0 1 880 62)" fill="#3C3C3C" stroke="none"><tspan dx="0 " x="0" y="9">individualName: CharacterString [0..1]</tspan></text><text transform="matrix(1 0 0 1 863 75)" fill="#3C3C3C" stroke="none"><tspan dx="0 " x="0" y="9">+ </tspan></text><text transform="matrix(1 0 0 1 880 75)" fill="#3C3C3C" stroke="none"><tspan dx="0 " x="0" y="9">organisationName: CharacterString [0..1]</tspan></text><text transform="matrix(1 0 0 1 863 88)" fill="#3C3C3C" stroke="none"><tspan dx="0 " x="0" y="9">+ </tspan></text><text transform="matrix(1 0 0 1 880 88)" fill="#3C3C3C" stroke="none"><tspan dx="0 " x="0" y="9">positionName: CharacterString [0..1]</tspan></text><text transform="matrix(1 0 0 1 863 101)" fill="#3C3C3C" stroke="none"><tspan dx="0 " x="0" y="9">+ </tspan></text><text transform="matrix(1 0 0 1 880 101)" fill="#3C3C3C" stroke="none"><tspan dx="0 " x="0" y="9">contactInfo: CI_Contact [0..1]</tspan></text><text transform="matrix(1 0 0 1 863 114)" fill="#3C3C3C" stroke="none"><tspan dx="0 " x="0" y="9">+ </tspan></text><text transform="matrix(1 0 0 1 880 114)" fill="#3C3C3C" stroke="none"><tspan dx="0 " x="0" y="9">role: CI_RoleCode</tspan></text><path fill="#DFDFDF" stroke="none" d="M1101 18C1101 13 1101 13 1106 13h125C1236 13 1236 13 1236 18V265C1236 270 1236 270 1231 270H1106C1101 270 1101 270 1101 265V18" /><path stroke="none" fill="#FFFFFF" d="M1098 15C1098 10 1098 10 1103 10h125C1233 10 1233 10 1233 15V262C1233 267 1233 267 1228 267H1103C1098 267 1098 267 1098 262V15" /><path stroke="#C0C0C0" d="M1098 15C1098 10 1098 10 1103 10h125C1233 10 1233 10 1233 15V262C1233 267 1233 267 1228 267H1103C1098 267 1098 267 1098 262V15m0 0C1098 10 1098 10 1103 10h125C1233 10 1233 10 1233 15V262C1233 267 1233 267 1228 267H1103C1098 267 1098 267 1098 262V15" /><rect stroke="#C0C0C0" x="1098" y="10" width="135" height="257" /><text transform="matrix(1 0 0 1 1139 16)" fill="#000000" stroke="none"><tspan dx="0 " x="0" y="9">«CodeList»</tspan></text><text transform="matrix(1 0 0 1 1102 29)" fill="#000000" font-weight="bold" stroke="none"><tspan dx="0 " x="0" y="9">Citation and responsible </tspan></text><text transform="matrix(1 0 0 1 1120 41)" fill="#000000" font-weight="bold" stroke="none"><tspan dx="0 " x="0" y="9">party information::</tspan></text><text transform="matrix(1 0 0 1 1099 53)" fill="#000000" font-weight="bold" stroke="none"><tspan dx="0 " x="0" y="9">CI_PresentationFormCode</tspan></text><path stroke="#C0C0C0" d="M1098 70h135" /><text transform="matrix(1 0 0 1 1103 74)" fill="#3C3C3C" stroke="none"><tspan dx="0 " x="0" y="9">+ </tspan></text><text transform="matrix(1 0 0 1 1120 74)" fill="#3C3C3C" stroke="none"><tspan dx="0 " x="0" y="9">documentDigital</tspan></text><text transform="matrix(1 0 0 1 1103 87)" fill="#3C3C3C" stroke="none"><tspan dx="0 " x="0" y="9">+ </tspan></text><text transform="matrix(1 0 0 1 1120 87)" fill="#3C3C3C" stroke="none"><tspan dx="0 " x="0" y="9">documentHardcopy</tspan></text><text transform="matrix(1 0 0 1 1103 100)" fill="#3C3C3C" stroke="none"><tspan dx="0 " x="0" y="9">+ </tspan></text><text transform="matrix(1 0 0 1 1120 100)" fill="#3C3C3C" stroke="none"><tspan dx="0 " x="0" y="9">imageDigital</tspan></text><text transform="matrix(1 0 0 1 1103 113)" fill="#3C3C3C" stroke="none"><tspan dx="0 " x="0" y="9">+ </tspan></text><text transform="matrix(1 0 0 1 1120 113)" fill="#3C3C3C" stroke="none"><tspan dx="0 " x="0" y="9">imageHardcopy</tspan></text><text transform="matrix(1 0 0 1 1103 126)" fill="#3C3C3C" stroke="none"><tspan dx="0 " x="0" y="9">+ </tspan></text><text transform="matrix(1 0 0 1 1120 126)" fill="#3C3C3C" stroke="none"><tspan dx="0 " x="0" y="9">mapDigital</tspan></text><text transform="matrix(1 0 0 1 1103 139)" fill="#3C3C3C" stroke="none"><tspan dx="0 " x="0" y="9">+ </tspan></text><text transform="matrix(1 0 0 1 1120 139)" fill="#3C3C3C" stroke="none"><tspan dx="0 " x="0" y="9">mapHardcopy</tspan></text><text transform="matrix(1 0 0 1 1103 152)" fill="#3C3C3C" stroke="none"><tspan dx="0 " x="0" y="9">+ </tspan></text><text transform="matrix(1 0 0 1 1120 152)" fill="#3C3C3C" stroke="none"><tspan dx="0 " x="0" y="9">modelDigital</tspan></text><text transform="matrix(1 0 0 1 1103 165)" fill="#3C3C3C" stroke="none"><tspan dx="0 " x="0" y="9">+ </tspan></text><text transform="matrix(1 0 0 1 1120 165)" fill="#3C3C3C" stroke="none"><tspan dx="0 " x="0" y="9">modelHardcopy</tspan></text><text transform="matrix(1 0 0 1 1103 178)" fill="#3C3C3C" stroke="none"><tspan dx="0 " x="0" y="9">+ </tspan></text><text transform="matrix(1 0 0 1 1120 178)" fill="#3C3C3C" stroke="none"><tspan dx="0 " x="0" y="9">profileDigital</tspan></text><text transform="matrix(1 0 0 1 1103 191)" fill="#3C3C3C" stroke="none"><tspan dx="0 " x="0" y="9">+ </tspan></text><text transform="matrix(1 0 0 1 1120 191)" fill="#3C3C3C" stroke="none"><tspan dx="0 " x="0" y="9">profileHardcopy</tspan></text><text transform="matrix(1 0 0 1 1103 204)" fill="#3C3C3C" stroke="none"><tspan dx="0 " x="0" y="9">+ </tspan></text><text transform="matrix(1 0 0 1 1120 204)" fill="#3C3C3C" stroke="none"><tspan dx="0 " x="0" y="9">tableDigital</tspan></text><text transform="matrix(1 0 0 1 1103 217)" fill="#3C3C3C" stroke="none"><tspan dx="0 " x="0" y="9">+ </tspan></text><text transform="matrix(1 0 0 1 1120 217)" fill="#3C3C3C" stroke="none"><tspan dx="0 " x="0" y="9">tableHardcopy</tspan></text><text transform="matrix(1 0 0 1 1103 230)" fill="#3C3C3C" stroke="none"><tspan dx="0 " x="0" y="9">+ </tspan></text><text transform="matrix(1 0 0 1 1120 230)" fill="#3C3C3C" stroke="none"><tspan dx="0 " x="0" y="9">videoDigital</tspan></text><text transform="matrix(1 0 0 1 1103 243)" fill="#3C3C3C" stroke="none"><tspan dx="0 " x="0" y="9">+ </tspan></text><text transform="matrix(1 0 0 1 1120 243)" fill="#3C3C3C" stroke="none"><tspan dx="0 " x="0" y="9">videoHardcopy</tspan></text><path d="M298 596v97m0 0l-6 -15m6 15l6 -15" /><path d="M297 351V477" /><path fill="#000000" d="M302 361l-5 -10l-5 10l5 10l5 -10" /><path d="M297 477l-6 -15m6 15l6 -15" /><path d="M292 249V152" /><path fill="#FCF2E3" d="M298 168H286l6 -16l6 16" /><path d="M408 298H589m0 0V238m0 0l6 15m-6 -15l-6 15" /><path d="M694 863V801" /><path fill="#FCF2E3" d="M700 817H688l6 -16l6 16" /><path d="M726 893H856" /><path fill="#000000" stroke="none" d="M726 892.5C726 891.12 727.12 890 728.5 890C729.88 890 731 891.12 731 892.5C731 893.88 729.88 895 728.5 895C727.12 895 726 893.88 726 892.5" /><path d="M726 892.5C726 891.12 727.12 890 728.5 890C729.88 890 731 891.12 731 892.5C731 893.88 729.88 895 728.5 895C727.12 895 726 893.88 726 892.5" /><path fill="#000000" stroke="none" d="M850 892.5C850 891.12 851.12 890 852.5 890C853.88 890 855 891.12 855 892.5C855 893.88 853.88 895 852.5 895C851.12 895 850 893.88 850 892.5" /><path d="M850 892.5C850 891.12 851.12 890 852.5 890C853.88 890 855 891.12 855 892.5C855 893.88 853.88 895 852.5 895C851.12 895 850 893.88 850 892.5M850 893l-15 6m15 -6l-15 -6" /><path d="M580 522H430" /><path fill="#000000" stroke="none" d="M574 521.5C574 520.12 575.12 519 576.5 519C577.88 519 579 520.12 579 521.5C579 522.88 577.88 524 576.5 524C575.12 524 574 522.88 574 521.5" /><path d="M574 521.5C574 520.12 575.12 519 576.5 519C577.88 519 579 520.12 579 521.5C579 522.88 577.88 524 576.5 524C575.12 524 574 522.88 574 521.5" /><path fill="#000000" stroke="none" d="M430 521.5C430 520.12 431.12 519 432.5 519C433.88 519 435 520.12 435 521.5C435 522.88 433.88 524 432.5 524C431.12 524 430 522.88 430 521.5" /><path d="M430 521.5C430 520.12 431.12 519 432.5 519C433.88 519 435 520.12 435 521.5C435 522.88 433.88 524 432.5 524C431.12 524 430 522.88 430 521.5M436 522l15 -6m-15 6l15 6" /><path d="M705 455V238m0 0l6 15m-6 -15l-6 15" /><path d="M464 788H585m0 0v75m0 0l-6 -15m6 15l6 -15" /><path d="M884 856V801" /><path fill="#FCF2E3" d="M890 817H878l6 -16l6 16" /><g transform="matrix(1 0 0 -1 494 300)"><rect fill="#FFFFFF" stroke="none" x="0" width="96" y="-11" height="11" /></g><text transform="matrix(1 0 0 1 494 300)" fill="#000000" stroke="none"><tspan dx="0 " x="0" y="9">heeft documentatie</tspan></text><g transform="matrix(1 0 0 -1 520 254)"><rect fill="#FFFFFF" stroke="none" x="0" width="55" y="-11" height="11" /></g><text transform="matrix(1 0 0 1 520 254)" fill="#000000" stroke="none"><tspan dx="0 " x="0" y="9">+document</tspan></text><g transform="matrix(1 0 0 -1 519 267)"><rect fill="#FFFFFF" stroke="none" x="0" width="60" y="-11" height="11" /></g><text transform="matrix(1 0 0 1 519 267)" fill="#000000" stroke="none"><tspan dx="0 " x="0" y="9">«Relatierol»</tspan></text><g transform="matrix(1 0 0 -1 257 620)"><rect fill="#FFFFFF" stroke="none" x="0" width="96" y="-11" height="11" /></g><text transform="matrix(1 0 0 1 257 620)" fill="#000000" stroke="none"><tspan dx="0 " x="0" y="9">heeft_bodemobject</tspan></text><g transform="matrix(1 0 0 -1 178 656)"><rect fill="#FFFFFF" stroke="none" x="0" width="116" y="-11" height="11" /></g><text transform="matrix(1 0 0 1 178 656)" fill="#000000" stroke="none"><tspan dx="0 " x="0" y="9">+inkaartGebrachtObject</tspan></text><g transform="matrix(1 0 0 -1 178 669)"><rect fill="#FFFFFF" stroke="none" x="0" width="60" y="-11" height="11" /></g><text transform="matrix(1 0 0 1 178 669)" fill="#000000" stroke="none"><tspan dx="0 " x="0" y="9">«Relatierol»</tspan></text><g transform="matrix(1 0 0 -1 318 673)"><rect fill="#FFFFFF" stroke="none" x="0" width="19" y="-11" height="11" /></g><text transform="matrix(1 0 0 1 318 673)" fill="#000000" stroke="none"><tspan dx="0 " x="0" y="9">1..1</tspan></text><g transform="matrix(1 0 0 -1 659 333)"><rect fill="#FFFFFF" stroke="none" x="0" width="96" y="-11" height="11" /></g><text transform="matrix(1 0 0 1 659 333)" fill="#000000" stroke="none"><tspan dx="0 " x="0" y="9">heeft documentatie</tspan></text><g transform="matrix(1 0 0 -1 720 246)"><rect fill="#FFFFFF" stroke="none" x="0" width="55" y="-11" height="11" /></g><text transform="matrix(1 0 0 1 720 246)" fill="#000000" stroke="none"><tspan dx="0 " x="0" y="9">+document</tspan></text><g transform="matrix(1 0 0 -1 719 259)"><rect fill="#FFFFFF" stroke="none" x="0" width="60" y="-11" height="11" /></g><text transform="matrix(1 0 0 1 719 259)" fill="#000000" stroke="none"><tspan dx="0 " x="0" y="9">«Relatierol»</tspan></text><g transform="matrix(1 0 0 -1 464 529)"><rect fill="#FFFFFF" stroke="none" x="0" width="86" y="-11" height="11" /></g><text transform="matrix(1 0 0 1 464 529)" fill="#000000" stroke="none"><tspan dx="0 " x="0" y="9">beschrijft_vlakken</tspan></text><g transform="matrix(1 0 0 -1 434 486)"><rect fill="#FFFFFF" stroke="none" x="0" width="25" y="-11" height="11" /></g><text transform="matrix(1 0 0 1 434 486)" fill="#000000" stroke="none"><tspan dx="0 " x="0" y="9">+vlak</tspan></text><g transform="matrix(1 0 0 -1 434 499)"><rect fill="#FFFFFF" stroke="none" x="0" width="60" y="-11" height="11" /></g><text transform="matrix(1 0 0 1 434 499)" fill="#000000" stroke="none"><tspan dx="0 " x="0" y="9">«Relatierol»</tspan></text><g transform="matrix(1 0 0 -1 433 527)"><rect fill="#FFFFFF" stroke="none" x="0" width="17" y="-11" height="11" /></g><text transform="matrix(1 0 0 1 433 527)" fill="#000000" stroke="none"><tspan dx="0 " x="0" y="9">1..*</tspan></text><g transform="matrix(1 0 0 -1 550 802)"><rect fill="#FFFFFF" stroke="none" x="0" width="83" y="-11" height="11" /></g><text transform="matrix(1 0 0 1 550 802)" fill="#000000" stroke="none"><tspan dx="0 " x="0" y="9">is_gebaseerd_op</tspan></text><g transform="matrix(1 0 0 -1 522 834)"><rect fill="#FFFFFF" stroke="none" x="0" width="38" y="-11" height="11" /></g><text transform="matrix(1 0 0 1 522 834)" fill="#000000" stroke="none"><tspan dx="0 " x="0" y="9">+profiel</tspan></text><g transform="matrix(1 0 0 -1 522 847)"><rect fill="#FFFFFF" stroke="none" x="0" width="60" y="-11" height="11" /></g><text transform="matrix(1 0 0 1 522 847)" fill="#000000" stroke="none"><tspan dx="0 " x="0" y="9">«Relatierol»</tspan></text><g transform="matrix(1 0 0 -1 593 845)"><rect fill="#FFFFFF" stroke="none" x="0" width="17" y="-11" height="11" /></g><text transform="matrix(1 0 0 1 593 845)" fill="#000000" stroke="none"><tspan dx="0 " x="0" y="9">1..*</tspan></text><g transform="matrix(1 0 0 -1 264 392)"><rect fill="#FFFFFF" stroke="none" x="0" width="67" y="-11" height="11" /></g><text transform="matrix(1 0 0 1 264 392)" fill="#000000" stroke="none"><tspan dx="0 " x="0" y="9">heeft_vlakken</tspan></text><g transform="matrix(1 0 0 -1 252 445)"><rect fill="#FFFFFF" stroke="none" x="0" width="25" y="-11" height="11" /></g><text transform="matrix(1 0 0 1 252 445)" fill="#000000" stroke="none"><tspan dx="0 " x="0" y="9">+vlak</tspan></text><g transform="matrix(1 0 0 -1 236 458)"><rect fill="#FFFFFF" stroke="none" x="0" width="60" y="-11" height="11" /></g><text transform="matrix(1 0 0 1 236 458)" fill="#000000" stroke="none"><tspan dx="0 " x="0" y="9">«Relatierol»</tspan></text><g transform="matrix(1 0 0 -1 305 459)"><rect fill="#FFFFFF" stroke="none" x="0" width="17" y="-11" height="11" /></g><text transform="matrix(1 0 0 1 305 459)" fill="#000000" stroke="none"><tspan dx="0 " x="0" y="9">1..*</tspan></text><g transform="matrix(1 0 0 -1 732 905)"><rect fill="#FFFFFF" stroke="none" x="0" width="17" y="-11" height="11" /></g><text transform="matrix(1 0 0 1 732 905)" fill="#000000" stroke="none"><tspan dx="0 " x="0" y="9">1..*</tspan></text><g transform="matrix(1 0 0 -1 741 897)"><rect fill="#FFFFFF" stroke="none" x="0" width="65" y="-11" height="11" /></g><text transform="matrix(1 0 0 1 741 897)" fill="#000000" stroke="none"><tspan dx="0 " x="0" y="9">afgeleid_van</tspan></text><g transform="matrix(1 0 0 -1 798 862)"><rect fill="#FFFFFF" stroke="none" x="0" width="38" y="-11" height="11" /></g><text transform="matrix(1 0 0 1 798 862)" fill="#000000" stroke="none"><tspan dx="0 " x="0" y="9">+profiel</tspan></text><g transform="matrix(1 0 0 -1 798 875)"><rect fill="#FFFFFF" stroke="none" x="0" width="60" y="-11" height="11" /></g><text transform="matrix(1 0 0 1 798 875)" fill="#000000" stroke="none"><tspan dx="0 " x="0" y="9">«Relatierol»</tspan></text><text transform="matrix(1 0 0 1 40 20)" fill="#0000C8" stroke="none"><tspan dx="0 " x="0" y="9">Name:</tspan></text><text transform="matrix(1 0 0 1 40 33)" fill="#0000C8" stroke="none"><tspan dx="0 " x="0" y="9">Package:</tspan></text><text transform="matrix(1 0 0 1 40 46)" fill="#0000C8" stroke="none"><tspan dx="0 " x="0" y="9">Version:</tspan></text><text transform="matrix(1 0 0 1 40 59)" fill="#0000C8" stroke="none"><tspan dx="0 " x="0" y="9">Author:</tspan></text><text transform="matrix(1 0 0 1 94 20)" fill="#000096" stroke="none"><tspan dx="0 " x="0" y="9">Bodem- en Grondwatertrappenkaart 1:50.000</tspan></text><text transform="matrix(1 0 0 1 94 33)" fill="#000096" stroke="none"><tspan dx="0 " x="0" y="9">«Domein» Model</tspan></text><text transform="matrix(1 0 0 1 94 46)" fill="#000096" stroke="none"><tspan dx="0 " x="0" y="9">1.0</tspan></text><text transform="matrix(1 0 0 1 94 59)" fill="#000096" stroke="none"><tspan dx="0 " x="0" y="9">Rob Knapen</tspan></text></g></g></g></g></svg>